<mxfile host="www.draw.io" modified="2019-11-19T02:18:18.328Z" agent="Mozilla/5.0 (Windows NT 10.0; Win64; x64) AppleWebKit/537.36 (KHTML, like Gecko) Chrome/78.0.3904.97 Safari/537.36" etag="dIkekwgaVlOlh3XkOGco" version="12.2.6" type="github" pages="1">
  <diagram id="ghhylSFfgHjQgVcrPekR" name="Page-1">
    <mxGraphModel dx="928" dy="600" grid="1" gridSize="10" guides="1" tooltips="1" connect="1" arrows="1" fold="1" page="1" pageScale="1" pageWidth="1654" pageHeight="1169" math="0" shadow="0">
      <root>
        <mxCell id="0"/>
        <mxCell id="1" parent="0"/>
        <mxCell id="JzE6JeNeijgl-ERopNni-44" value="&lt;font style=&quot;font-size: 14px&quot;&gt;ANÁLISE DE VIABILIDADE TÉCNICA&lt;/font&gt;" style="swimlane;html=1;childLayout=stackLayout;resizeParent=1;resizeParentMax=0;startSize=20;fontFamily=Arial;fontStyle=3;verticalAlign=bottom;" parent="1" vertex="1">
          <mxGeometry x="1730" y="80" width="1450" height="740" as="geometry"/>
        </mxCell>
        <mxCell id="JzE6JeNeijgl-ERopNni-45" value="A - SOLICITAÇÃO" style="swimlane;html=1;startSize=20;fontFamily=Arial;fontStyle=2" parent="JzE6JeNeijgl-ERopNni-44" vertex="1">
          <mxGeometry y="20" width="340" height="720" as="geometry"/>
        </mxCell>
        <mxCell id="JzE6JeNeijgl-ERopNni-93" value="" style="whiteSpace=wrap;html=1;fontFamily=Arial;fontSize=11;fillColor=#fff2cc;strokeColor=#d6b656;dashed=1;strokeWidth=1;rounded=1;arcSize=3;" parent="JzE6JeNeijgl-ERopNni-45" vertex="1">
          <mxGeometry x="10" y="110" width="320" height="600" as="geometry"/>
        </mxCell>
        <mxCell id="JzE6JeNeijgl-ERopNni-52" value="" style="edgeStyle=orthogonalEdgeStyle;rounded=0;orthogonalLoop=1;jettySize=auto;html=1;fontFamily=Arial;exitX=0.5;exitY=1;exitDx=0;exitDy=0;exitPerimeter=0;entryX=0.5;entryY=0;entryDx=0;entryDy=0;entryPerimeter=0;" parent="JzE6JeNeijgl-ERopNni-45" source="JzE6JeNeijgl-ERopNni-50" target="JzE6JeNeijgl-ERopNni-67" edge="1">
          <mxGeometry relative="1" as="geometry">
            <mxPoint x="170" y="288" as="targetPoint"/>
            <Array as="points">
              <mxPoint x="135" y="278"/>
              <mxPoint x="215" y="278"/>
            </Array>
          </mxGeometry>
        </mxCell>
        <mxCell id="JzE6JeNeijgl-ERopNni-59" style="edgeStyle=orthogonalEdgeStyle;rounded=0;orthogonalLoop=1;jettySize=auto;html=1;entryX=0;entryY=0.5;entryDx=0;entryDy=0;entryPerimeter=0;fontFamily=Arial;" parent="JzE6JeNeijgl-ERopNni-45" source="JzE6JeNeijgl-ERopNni-50" target="JzE6JeNeijgl-ERopNni-58" edge="1">
          <mxGeometry relative="1" as="geometry"/>
        </mxCell>
        <mxCell id="JzE6JeNeijgl-ERopNni-50" value="1. Checklist" style="strokeWidth=2;html=1;shape=mxgraph.flowchart.start_1;whiteSpace=wrap;fontFamily=Arial;fontStyle=1" parent="JzE6JeNeijgl-ERopNni-45" vertex="1">
          <mxGeometry x="85" y="198" width="100" height="60" as="geometry"/>
        </mxCell>
        <mxCell id="JzE6JeNeijgl-ERopNni-56" value="" style="edgeStyle=orthogonalEdgeStyle;rounded=0;orthogonalLoop=1;jettySize=auto;html=1;fontFamily=Arial;entryX=0;entryY=0.5;entryDx=0;entryDy=0;entryPerimeter=0;" parent="JzE6JeNeijgl-ERopNni-45" source="JzE6JeNeijgl-ERopNni-53" target="JzE6JeNeijgl-ERopNni-57" edge="1">
          <mxGeometry relative="1" as="geometry">
            <mxPoint x="245" y="566" as="targetPoint"/>
          </mxGeometry>
        </mxCell>
        <mxCell id="JzE6JeNeijgl-ERopNni-53" value="2. Abertura" style="rounded=1;whiteSpace=wrap;html=1;absoluteArcSize=1;arcSize=14;strokeWidth=2;fontFamily=Arial;fontStyle=1" parent="JzE6JeNeijgl-ERopNni-45" vertex="1">
          <mxGeometry x="45" y="528" width="90" height="60" as="geometry"/>
        </mxCell>
        <mxCell id="JzE6JeNeijgl-ERopNni-57" value="&lt;div&gt;Protocolo SPD&lt;/div&gt;&lt;div&gt;(Protocolo principal)&lt;br&gt;&lt;/div&gt;" style="strokeWidth=2;html=1;shape=mxgraph.flowchart.document2;whiteSpace=wrap;size=0.25;fontFamily=Arial;verticalAlign=top;" parent="JzE6JeNeijgl-ERopNni-45" vertex="1">
          <mxGeometry x="185" y="468" width="130" height="60" as="geometry"/>
        </mxCell>
        <mxCell id="JzE6JeNeijgl-ERopNni-58" value="&lt;div align=&quot;left&quot;&gt;Documentação&lt;/div&gt;" style="strokeWidth=2;html=1;shape=mxgraph.flowchart.multi-document;whiteSpace=wrap;fontFamily=Arial;align=left;verticalAlign=middle;" parent="JzE6JeNeijgl-ERopNni-45" vertex="1">
          <mxGeometry x="205" y="198" width="110" height="60" as="geometry"/>
        </mxCell>
        <mxCell id="JzE6JeNeijgl-ERopNni-68" style="edgeStyle=orthogonalEdgeStyle;rounded=0;orthogonalLoop=1;jettySize=auto;html=1;entryX=0.5;entryY=0;entryDx=0;entryDy=0;fontFamily=Arial;" parent="JzE6JeNeijgl-ERopNni-45" source="JzE6JeNeijgl-ERopNni-69" target="JzE6JeNeijgl-ERopNni-53" edge="1">
          <mxGeometry relative="1" as="geometry"/>
        </mxCell>
        <mxCell id="JzE6JeNeijgl-ERopNni-91" style="edgeStyle=orthogonalEdgeStyle;rounded=0;orthogonalLoop=1;jettySize=auto;html=1;fontFamily=Arial;fontSize=11;" parent="JzE6JeNeijgl-ERopNni-45" source="JzE6JeNeijgl-ERopNni-90" target="JzE6JeNeijgl-ERopNni-81" edge="1">
          <mxGeometry relative="1" as="geometry">
            <Array as="points">
              <mxPoint x="60" y="268"/>
              <mxPoint x="60" y="268"/>
            </Array>
          </mxGeometry>
        </mxCell>
        <mxCell id="JzE6JeNeijgl-ERopNni-67" value="Documentação completa?" style="strokeWidth=2;html=1;shape=mxgraph.flowchart.decision;whiteSpace=wrap;fontFamily=Arial;" parent="JzE6JeNeijgl-ERopNni-45" vertex="1">
          <mxGeometry x="150" y="328" width="130" height="100" as="geometry"/>
        </mxCell>
        <mxCell id="JzE6JeNeijgl-ERopNni-69" value="Sim" style="text;html=1;resizable=0;autosize=1;align=center;verticalAlign=middle;points=[];fillColor=none;strokeColor=none;rounded=0;fontFamily=Arial;fontSize=11;fontStyle=2" parent="JzE6JeNeijgl-ERopNni-45" vertex="1">
          <mxGeometry x="70" y="478" width="40" height="20" as="geometry"/>
        </mxCell>
        <mxCell id="JzE6JeNeijgl-ERopNni-71" style="edgeStyle=orthogonalEdgeStyle;rounded=0;orthogonalLoop=1;jettySize=auto;html=1;entryX=0.5;entryY=0;entryDx=0;entryDy=0;fontFamily=Arial;exitX=0.5;exitY=1;exitDx=0;exitDy=0;exitPerimeter=0;" parent="JzE6JeNeijgl-ERopNni-45" source="JzE6JeNeijgl-ERopNni-67" target="JzE6JeNeijgl-ERopNni-69" edge="1">
          <mxGeometry relative="1" as="geometry">
            <mxPoint x="85" y="468" as="sourcePoint"/>
            <mxPoint x="85" y="578" as="targetPoint"/>
            <Array as="points">
              <mxPoint x="215" y="448"/>
              <mxPoint x="90" y="448"/>
            </Array>
          </mxGeometry>
        </mxCell>
        <mxCell id="JzE6JeNeijgl-ERopNni-79" style="edgeStyle=orthogonalEdgeStyle;rounded=0;orthogonalLoop=1;jettySize=auto;html=1;fontFamily=Arial;entryX=0.5;entryY=0;entryDx=0;entryDy=0;entryPerimeter=0;exitX=1;exitY=0.75;exitDx=0;exitDy=0;" parent="JzE6JeNeijgl-ERopNni-45" source="JzE6JeNeijgl-ERopNni-94" target="JzE6JeNeijgl-ERopNni-50" edge="1">
          <mxGeometry relative="1" as="geometry">
            <mxPoint x="90" y="64" as="sourcePoint"/>
            <mxPoint x="110" y="138" as="targetPoint"/>
            <Array as="points">
              <mxPoint x="135" y="78"/>
            </Array>
          </mxGeometry>
        </mxCell>
        <mxCell id="JzE6JeNeijgl-ERopNni-80" style="edgeStyle=orthogonalEdgeStyle;rounded=0;orthogonalLoop=1;jettySize=auto;html=1;fontFamily=Arial;" parent="JzE6JeNeijgl-ERopNni-45" source="JzE6JeNeijgl-ERopNni-81" edge="1">
          <mxGeometry relative="1" as="geometry">
            <mxPoint x="60" y="98" as="targetPoint"/>
          </mxGeometry>
        </mxCell>
        <mxCell id="JzE6JeNeijgl-ERopNni-81" value="&lt;div style=&quot;font-size: 10px&quot;&gt;&lt;i style=&quot;font-size: 10px&quot;&gt;Esclarece&lt;/i&gt;&lt;/div&gt;&lt;div style=&quot;font-size: 10px&quot;&gt;&lt;i style=&quot;font-size: 10px&quot;&gt;o cliente&lt;/i&gt;&lt;/div&gt;&lt;div style=&quot;font-size: 10px&quot;&gt;&lt;i style=&quot;font-size: 10px&quot;&gt;e encerra&lt;/i&gt;&lt;/div&gt;&lt;div style=&quot;font-size: 10px&quot;&gt;&lt;i style=&quot;font-size: 10px&quot;&gt;o atendimento&lt;br style=&quot;font-size: 10px&quot;&gt;&lt;/i&gt; &lt;/div&gt;" style="text;html=1;resizable=0;autosize=1;align=center;verticalAlign=middle;points=[];fillColor=none;strokeColor=none;rounded=0;fontFamily=Arial;fontSize=10;direction=south;" parent="JzE6JeNeijgl-ERopNni-45" vertex="1">
          <mxGeometry x="20" y="141" width="80" height="50" as="geometry"/>
        </mxCell>
        <mxCell id="JzE6JeNeijgl-ERopNni-90" value="Não" style="text;html=1;resizable=0;autosize=1;align=center;verticalAlign=middle;points=[];fillColor=none;strokeColor=none;rounded=0;fontFamily=Arial;fontSize=11;fontStyle=2" parent="JzE6JeNeijgl-ERopNni-45" vertex="1">
          <mxGeometry x="38" y="298" width="40" height="20" as="geometry"/>
        </mxCell>
        <mxCell id="JzE6JeNeijgl-ERopNni-92" style="edgeStyle=orthogonalEdgeStyle;rounded=0;orthogonalLoop=1;jettySize=auto;html=1;entryX=0.503;entryY=1.067;entryDx=0;entryDy=0;entryPerimeter=0;fontFamily=Arial;fontSize=11;" parent="JzE6JeNeijgl-ERopNni-45" source="JzE6JeNeijgl-ERopNni-67" target="JzE6JeNeijgl-ERopNni-90" edge="1">
          <mxGeometry relative="1" as="geometry">
            <mxPoint x="170" y="420" as="sourcePoint"/>
            <mxPoint x="80.33333333333337" y="213.33333333333337" as="targetPoint"/>
            <Array as="points">
              <mxPoint x="58" y="378"/>
            </Array>
          </mxGeometry>
        </mxCell>
        <mxCell id="JzE6JeNeijgl-ERopNni-94" value="&lt;span style=&quot;&quot;&gt;Cliente&lt;/span&gt;" style="shape=actor;whiteSpace=wrap;html=1;rounded=1;strokeColor=#000000;strokeWidth=2;fillColor=#B3B3B3;fontFamily=Arial;fontSize=11;verticalAlign=bottom;labelBackgroundColor=none;" parent="JzE6JeNeijgl-ERopNni-45" vertex="1">
          <mxGeometry x="35" y="33" width="50" height="60" as="geometry"/>
        </mxCell>
        <mxCell id="JzE6JeNeijgl-ERopNni-139" style="edgeStyle=orthogonalEdgeStyle;rounded=0;orthogonalLoop=1;jettySize=auto;html=1;entryX=0;entryY=0.75;entryDx=0;entryDy=0;entryPerimeter=0;fontFamily=Arial;fontSize=11;exitX=0;exitY=0.5;exitDx=0;exitDy=0;exitPerimeter=0;" parent="JzE6JeNeijgl-ERopNni-45" source="JzE6JeNeijgl-ERopNni-138" target="JzE6JeNeijgl-ERopNni-57" edge="1">
          <mxGeometry relative="1" as="geometry">
            <Array as="points">
              <mxPoint x="165" y="608"/>
              <mxPoint x="165" y="513"/>
            </Array>
          </mxGeometry>
        </mxCell>
        <mxCell id="JzE6JeNeijgl-ERopNni-138" value="&lt;div&gt;&lt;i&gt;2.1 Anexar arquivo&lt;/i&gt;&lt;/div&gt;&lt;div align=&quot;left&quot;&gt;&lt;i&gt;digital do Partido&lt;/i&gt;&lt;/div&gt;&lt;div align=&quot;left&quot;&gt;&lt;i&gt;Urbanístico no SPD&lt;/i&gt;&lt;br&gt;&lt;/div&gt;" style="strokeWidth=2;html=1;shape=mxgraph.flowchart.annotation_2;align=left;labelPosition=right;pointerEvents=1;rounded=1;fillColor=#ffffff;fontFamily=Arial;fontSize=11;" parent="JzE6JeNeijgl-ERopNni-45" vertex="1">
          <mxGeometry x="185" y="580" width="25" height="56" as="geometry"/>
        </mxCell>
        <mxCell id="JzE6JeNeijgl-ERopNni-184" value="5.0.06.00/GCLE" style="text;html=1;resizable=0;autosize=1;align=center;verticalAlign=middle;points=[];fillColor=none;strokeColor=none;rounded=0;fontFamily=Arial;fontSize=22;fontColor=#994C00;fontStyle=1" parent="JzE6JeNeijgl-ERopNni-45" vertex="1">
          <mxGeometry x="150" y="123" width="170" height="30" as="geometry"/>
        </mxCell>
        <mxCell id="JzE6JeNeijgl-ERopNni-46" value="B - VERIFICAÇÃO DE DÉBITOS" style="swimlane;html=1;startSize=20;fontFamily=Arial;" parent="JzE6JeNeijgl-ERopNni-44" vertex="1">
          <mxGeometry x="340" y="20" width="340" height="720" as="geometry"/>
        </mxCell>
        <mxCell id="JzE6JeNeijgl-ERopNni-122" value="" style="whiteSpace=wrap;html=1;fontFamily=Arial;fontSize=11;fillColor=#d5e8d4;strokeColor=#82b366;dashed=1;strokeWidth=1;rounded=1;arcSize=3;" parent="JzE6JeNeijgl-ERopNni-46" vertex="1">
          <mxGeometry x="10" y="30" width="320" height="680" as="geometry"/>
        </mxCell>
        <mxCell id="JzE6JeNeijgl-ERopNni-65" value="" style="edgeStyle=orthogonalEdgeStyle;rounded=0;orthogonalLoop=1;jettySize=auto;html=1;fontFamily=Arial;entryX=0.5;entryY=0;entryDx=0;entryDy=0;entryPerimeter=0;" parent="JzE6JeNeijgl-ERopNni-46" source="JzE6JeNeijgl-ERopNni-60" target="JzE6JeNeijgl-ERopNni-66" edge="1">
          <mxGeometry relative="1" as="geometry">
            <mxPoint x="90" y="178" as="targetPoint"/>
          </mxGeometry>
        </mxCell>
        <mxCell id="JzE6JeNeijgl-ERopNni-60" value="&lt;font style=&quot;font-size: 12px&quot; face=&quot;Arial&quot;&gt;1. &lt;span style=&quot;background-color: transparent ; font-weight: 700 ; font-variant: normal ; text-decoration: none ; vertical-align: baseline ; white-space: pre-wrap&quot; id=&quot;docs-internal-guid-7abce273-7fff-0287-8ae0-c73eb1ac15d4&quot;&gt;Consulta situação de débitos (GSAN)&lt;/span&gt;&lt;/font&gt;" style="rounded=1;whiteSpace=wrap;html=1;absoluteArcSize=1;arcSize=14;strokeWidth=2;fontFamily=Arial;fontStyle=1" parent="JzE6JeNeijgl-ERopNni-46" vertex="1">
          <mxGeometry x="20" y="118" width="130" height="60" as="geometry"/>
        </mxCell>
        <mxCell id="JzE6JeNeijgl-ERopNni-103" style="edgeStyle=orthogonalEdgeStyle;rounded=0;orthogonalLoop=1;jettySize=auto;html=1;fontFamily=Arial;fontSize=11;" parent="JzE6JeNeijgl-ERopNni-46" source="JzE6JeNeijgl-ERopNni-66" target="JzE6JeNeijgl-ERopNni-100" edge="1">
          <mxGeometry relative="1" as="geometry"/>
        </mxCell>
        <mxCell id="JzE6JeNeijgl-ERopNni-105" value="" style="edgeStyle=orthogonalEdgeStyle;rounded=0;orthogonalLoop=1;jettySize=auto;html=1;fontFamily=Arial;fontSize=11;entryX=0.5;entryY=0;entryDx=0;entryDy=0;" parent="JzE6JeNeijgl-ERopNni-46" source="JzE6JeNeijgl-ERopNni-106" target="JzE6JeNeijgl-ERopNni-111" edge="1">
          <mxGeometry relative="1" as="geometry">
            <mxPoint x="130" y="400" as="targetPoint"/>
          </mxGeometry>
        </mxCell>
        <mxCell id="JzE6JeNeijgl-ERopNni-66" value="Há débitos?" style="strokeWidth=2;html=1;shape=mxgraph.flowchart.decision;whiteSpace=wrap;fontFamily=Arial;" parent="JzE6JeNeijgl-ERopNni-46" vertex="1">
          <mxGeometry x="80" y="238" width="100" height="82" as="geometry"/>
        </mxCell>
        <mxCell id="JzE6JeNeijgl-ERopNni-99" style="edgeStyle=orthogonalEdgeStyle;rounded=0;orthogonalLoop=1;jettySize=auto;html=1;fontFamily=Arial;fontSize=11;entryX=1;entryY=0.5;entryDx=0;entryDy=0;exitX=1;exitY=0.5;exitDx=0;exitDy=0;exitPerimeter=0;" parent="JzE6JeNeijgl-ERopNni-46" source="JzE6JeNeijgl-ERopNni-100" target="JzE6JeNeijgl-ERopNni-108" edge="1">
          <mxGeometry relative="1" as="geometry">
            <mxPoint x="200" y="301" as="sourcePoint"/>
            <mxPoint x="171.16666666666674" y="49.66666666666674" as="targetPoint"/>
            <Array as="points">
              <mxPoint x="320" y="279"/>
              <mxPoint x="320" y="81"/>
            </Array>
          </mxGeometry>
        </mxCell>
        <mxCell id="JzE6JeNeijgl-ERopNni-100" value="Sim" style="text;html=1;resizable=0;autosize=1;align=center;verticalAlign=middle;points=[];fillColor=none;strokeColor=none;rounded=0;fontFamily=Arial;fontSize=11;" parent="JzE6JeNeijgl-ERopNni-46" vertex="1">
          <mxGeometry x="255" y="269" width="30" height="20" as="geometry"/>
        </mxCell>
        <mxCell id="JzE6JeNeijgl-ERopNni-106" value="Não" style="text;html=1;resizable=0;autosize=1;align=center;verticalAlign=middle;points=[];fillColor=none;strokeColor=none;rounded=0;fontFamily=Arial;fontSize=11;" parent="JzE6JeNeijgl-ERopNni-46" vertex="1">
          <mxGeometry x="110" y="345" width="40" height="20" as="geometry"/>
        </mxCell>
        <mxCell id="JzE6JeNeijgl-ERopNni-107" value="" style="edgeStyle=orthogonalEdgeStyle;rounded=0;orthogonalLoop=1;jettySize=auto;html=1;fontFamily=Arial;fontSize=11;" parent="JzE6JeNeijgl-ERopNni-46" source="JzE6JeNeijgl-ERopNni-66" target="JzE6JeNeijgl-ERopNni-106" edge="1">
          <mxGeometry relative="1" as="geometry">
            <mxPoint x="490" y="362" as="sourcePoint"/>
            <mxPoint x="490" y="441.9999999999999" as="targetPoint"/>
          </mxGeometry>
        </mxCell>
        <mxCell id="JzE6JeNeijgl-ERopNni-108" value="Contacta o cliente para regualrização do débito" style="rounded=1;whiteSpace=wrap;html=1;absoluteArcSize=1;arcSize=14;strokeWidth=2;fillColor=#ffffff;fontFamily=Arial;fontSize=11;" parent="JzE6JeNeijgl-ERopNni-46" vertex="1">
          <mxGeometry x="50" y="60" width="160" height="42" as="geometry"/>
        </mxCell>
        <mxCell id="JzE6JeNeijgl-ERopNni-119" value="" style="edgeStyle=orthogonalEdgeStyle;rounded=0;orthogonalLoop=1;jettySize=auto;html=1;fontFamily=Arial;fontSize=11;" parent="JzE6JeNeijgl-ERopNni-46" source="JzE6JeNeijgl-ERopNni-111" target="JzE6JeNeijgl-ERopNni-120" edge="1">
          <mxGeometry relative="1" as="geometry">
            <mxPoint x="195" y="458.0000000000001" as="targetPoint"/>
          </mxGeometry>
        </mxCell>
        <mxCell id="JzE6JeNeijgl-ERopNni-111" value="2. Emissão da Certidão Negativa" style="rounded=1;whiteSpace=wrap;html=1;absoluteArcSize=1;arcSize=14;strokeWidth=2;fillColor=#ffffff;fontFamily=Arial;fontSize=11;verticalAlign=top;" parent="JzE6JeNeijgl-ERopNni-46" vertex="1">
          <mxGeometry x="40" y="432" width="110" height="52" as="geometry"/>
        </mxCell>
        <mxCell id="JzE6JeNeijgl-ERopNni-117" value="Extrato de débitos (GSAN)" style="strokeWidth=2;html=1;shape=mxgraph.flowchart.document2;whiteSpace=wrap;size=0.25;rounded=1;fillColor=#ffffff;fontFamily=Arial;fontSize=11;verticalAlign=top;" parent="JzE6JeNeijgl-ERopNni-46" vertex="1">
          <mxGeometry x="200" y="118" width="100" height="60" as="geometry"/>
        </mxCell>
        <mxCell id="JzE6JeNeijgl-ERopNni-116" value="" style="edgeStyle=orthogonalEdgeStyle;rounded=0;orthogonalLoop=1;jettySize=auto;html=1;fontFamily=Arial;fontSize=11;entryX=0;entryY=0.5;entryDx=0;entryDy=0;entryPerimeter=0;" parent="JzE6JeNeijgl-ERopNni-46" source="JzE6JeNeijgl-ERopNni-60" target="JzE6JeNeijgl-ERopNni-117" edge="1">
          <mxGeometry relative="1" as="geometry">
            <mxPoint x="205" y="148" as="targetPoint"/>
          </mxGeometry>
        </mxCell>
        <mxCell id="JzE6JeNeijgl-ERopNni-120" value="Certidão Negativa de Débitos" style="strokeWidth=2;html=1;shape=mxgraph.flowchart.document2;whiteSpace=wrap;size=0.25;rounded=1;fillColor=#ffffff;fontFamily=Arial;fontSize=11;verticalAlign=top;" parent="JzE6JeNeijgl-ERopNni-46" vertex="1">
          <mxGeometry x="210" y="428" width="100" height="60" as="geometry"/>
        </mxCell>
        <mxCell id="JzE6JeNeijgl-ERopNni-160" style="edgeStyle=orthogonalEdgeStyle;rounded=0;orthogonalLoop=1;jettySize=auto;html=1;entryX=0;entryY=0.5;entryDx=0;entryDy=0;entryPerimeter=0;fontFamily=Arial;fontSize=11;" parent="JzE6JeNeijgl-ERopNni-46" source="JzE6JeNeijgl-ERopNni-127" target="JzE6JeNeijgl-ERopNni-158" edge="1">
          <mxGeometry relative="1" as="geometry"/>
        </mxCell>
        <mxCell id="JzE6JeNeijgl-ERopNni-164" style="edgeStyle=orthogonalEdgeStyle;rounded=0;orthogonalLoop=1;jettySize=auto;html=1;fontFamily=Arial;fontSize=11;" parent="JzE6JeNeijgl-ERopNni-46" source="JzE6JeNeijgl-ERopNni-127" target="JzE6JeNeijgl-ERopNni-130" edge="1">
          <mxGeometry relative="1" as="geometry">
            <Array as="points">
              <mxPoint x="95" y="664"/>
            </Array>
          </mxGeometry>
        </mxCell>
        <mxCell id="JzE6JeNeijgl-ERopNni-127" value="3. Encaminhamento para Análise Técnica" style="rounded=1;whiteSpace=wrap;html=1;absoluteArcSize=1;arcSize=14;strokeWidth=2;fillColor=#ffffff;fontFamily=Arial;fontSize=11;" parent="JzE6JeNeijgl-ERopNni-46" vertex="1">
          <mxGeometry x="40" y="568" width="110" height="62" as="geometry"/>
        </mxCell>
        <mxCell id="JzE6JeNeijgl-ERopNni-123" style="edgeStyle=orthogonalEdgeStyle;rounded=0;orthogonalLoop=1;jettySize=auto;html=1;fontFamily=Arial;fontSize=11;" parent="JzE6JeNeijgl-ERopNni-46" source="JzE6JeNeijgl-ERopNni-111" target="JzE6JeNeijgl-ERopNni-127" edge="1">
          <mxGeometry relative="1" as="geometry">
            <mxPoint x="440" y="368" as="targetPoint"/>
            <Array as="points">
              <mxPoint x="95" y="538"/>
              <mxPoint x="95" y="538"/>
            </Array>
          </mxGeometry>
        </mxCell>
        <mxCell id="JzE6JeNeijgl-ERopNni-158" value="&lt;div&gt;Protocolo SPD Análise Técnica&lt;/div&gt;&lt;div&gt;(2° vinculado)&lt;br&gt;&lt;/div&gt;" style="strokeWidth=2;html=1;shape=mxgraph.flowchart.document2;whiteSpace=wrap;size=0.25;rounded=1;fillColor=#ffffff;fontFamily=Arial;fontSize=11;verticalAlign=top;" parent="JzE6JeNeijgl-ERopNni-46" vertex="1">
          <mxGeometry x="210" y="564" width="100" height="70" as="geometry"/>
        </mxCell>
        <mxCell id="JzE6JeNeijgl-ERopNni-130" value="&lt;div&gt;Encaminha para&lt;/div&gt;&lt;div&gt;4.0.00.00/DOM&lt;/div&gt;" style="text;html=1;resizable=0;autosize=1;align=center;verticalAlign=middle;points=[];fillColor=none;strokeColor=none;rounded=0;fontFamily=Arial;fontSize=11;fontStyle=2" parent="JzE6JeNeijgl-ERopNni-46" vertex="1">
          <mxGeometry x="180" y="644" width="90" height="30" as="geometry"/>
        </mxCell>
        <mxCell id="JzE6JeNeijgl-ERopNni-185" value="5.0.06.00/GCLE" style="text;html=1;resizable=0;autosize=1;align=center;verticalAlign=middle;points=[];fillColor=none;strokeColor=none;rounded=0;fontFamily=Arial;fontSize=22;fontColor=#336600;fontStyle=1" parent="JzE6JeNeijgl-ERopNni-46" vertex="1">
          <mxGeometry x="10" y="670" width="170" height="30" as="geometry"/>
        </mxCell>
        <mxCell id="JzE6JeNeijgl-ERopNni-48" value="C - ANÁLISE TÉCNICA" style="swimlane;html=1;startSize=20;fontFamily=Arial;" parent="JzE6JeNeijgl-ERopNni-44" vertex="1">
          <mxGeometry x="680" y="20" width="420" height="720" as="geometry"/>
        </mxCell>
        <mxCell id="JzE6JeNeijgl-ERopNni-183" value="" style="whiteSpace=wrap;html=1;fontFamily=Arial;fontSize=11;fillColor=#e1d5e7;strokeColor=#9673a6;dashed=1;strokeWidth=1;rounded=1;arcSize=3;" parent="JzE6JeNeijgl-ERopNni-48" vertex="1">
          <mxGeometry x="10" y="30" width="400" height="680" as="geometry"/>
        </mxCell>
        <mxCell id="JzE6JeNeijgl-ERopNni-147" style="edgeStyle=orthogonalEdgeStyle;rounded=0;orthogonalLoop=1;jettySize=auto;html=1;fontFamily=Arial;fontSize=11;" parent="JzE6JeNeijgl-ERopNni-48" source="JzE6JeNeijgl-ERopNni-124" target="JzE6JeNeijgl-ERopNni-142" edge="1">
          <mxGeometry relative="1" as="geometry">
            <Array as="points">
              <mxPoint x="155" y="150"/>
              <mxPoint x="155" y="150"/>
            </Array>
          </mxGeometry>
        </mxCell>
        <mxCell id="JzE6JeNeijgl-ERopNni-124" value="1. Triagem e Encaminhamento" style="rounded=1;whiteSpace=wrap;html=1;absoluteArcSize=1;arcSize=14;strokeWidth=2;fillColor=#ffffff;fontFamily=Arial;fontSize=11;" parent="JzE6JeNeijgl-ERopNni-48" vertex="1">
          <mxGeometry x="55" y="80" width="130" height="50" as="geometry"/>
        </mxCell>
        <mxCell id="JzE6JeNeijgl-ERopNni-190" style="edgeStyle=orthogonalEdgeStyle;rounded=0;orthogonalLoop=1;jettySize=auto;html=1;entryX=0.435;entryY=0.052;entryDx=0;entryDy=0;fontFamily=Arial;fontSize=22;fontColor=#660066;entryPerimeter=0;" parent="JzE6JeNeijgl-ERopNni-48" source="JzE6JeNeijgl-ERopNni-136" target="JzE6JeNeijgl-ERopNni-168" edge="1">
          <mxGeometry relative="1" as="geometry">
            <Array as="points">
              <mxPoint x="240" y="210"/>
              <mxPoint x="120" y="210"/>
            </Array>
          </mxGeometry>
        </mxCell>
        <mxCell id="JzE6JeNeijgl-ERopNni-136" value="1.1 ATOM" style="rounded=1;whiteSpace=wrap;html=1;absoluteArcSize=1;arcSize=14;strokeWidth=2;fillColor=#ffffff;fontFamily=Arial;fontSize=11;" parent="JzE6JeNeijgl-ERopNni-48" vertex="1">
          <mxGeometry x="219" y="149" width="81" height="50" as="geometry"/>
        </mxCell>
        <mxCell id="JzE6JeNeijgl-ERopNni-195" style="edgeStyle=orthogonalEdgeStyle;rounded=0;orthogonalLoop=1;jettySize=auto;html=1;entryX=0.5;entryY=0;entryDx=0;entryDy=0;entryPerimeter=0;fontFamily=Arial;fontSize=10;fontColor=#660066;" parent="JzE6JeNeijgl-ERopNni-48" source="JzE6JeNeijgl-ERopNni-166" target="JzE6JeNeijgl-ERopNni-194" edge="1">
          <mxGeometry relative="1" as="geometry"/>
        </mxCell>
        <mxCell id="JzE6JeNeijgl-ERopNni-166" value="2. Análise e Emissão virtual da AVT" style="rounded=1;whiteSpace=wrap;html=1;absoluteArcSize=1;arcSize=14;strokeWidth=2;fillColor=#ffffff;fontFamily=Arial;fontSize=11;" parent="JzE6JeNeijgl-ERopNni-48" vertex="1">
          <mxGeometry x="100" y="440" width="130" height="50" as="geometry"/>
        </mxCell>
        <mxCell id="JzE6JeNeijgl-ERopNni-189" style="edgeStyle=orthogonalEdgeStyle;rounded=0;orthogonalLoop=1;jettySize=auto;html=1;entryX=0;entryY=0.5;entryDx=0;entryDy=0;fontFamily=Arial;fontSize=22;fontColor=#660066;" parent="JzE6JeNeijgl-ERopNni-48" source="JzE6JeNeijgl-ERopNni-142" target="JzE6JeNeijgl-ERopNni-136" edge="1">
          <mxGeometry relative="1" as="geometry"/>
        </mxCell>
        <mxCell id="JzE6JeNeijgl-ERopNni-142" value="&lt;div&gt;Encaminha&lt;/div&gt;&lt;div&gt;para&lt;/div&gt;" style="text;html=1;resizable=0;autosize=1;align=center;verticalAlign=middle;points=[];fillColor=none;strokeColor=none;rounded=0;fontFamily=Arial;fontSize=11;fontStyle=2" parent="JzE6JeNeijgl-ERopNni-48" vertex="1">
          <mxGeometry x="95" y="165" width="70" height="30" as="geometry"/>
        </mxCell>
        <mxCell id="JzE6JeNeijgl-ERopNni-175" style="edgeStyle=orthogonalEdgeStyle;rounded=0;orthogonalLoop=1;jettySize=auto;html=1;entryX=0;entryY=0.5;entryDx=0;entryDy=0;fontFamily=Arial;fontSize=11;" parent="JzE6JeNeijgl-ERopNni-48" source="JzE6JeNeijgl-ERopNni-168" target="JzE6JeNeijgl-ERopNni-174" edge="1">
          <mxGeometry relative="1" as="geometry">
            <Array as="points">
              <mxPoint x="164" y="255"/>
              <mxPoint x="164" y="255"/>
            </Array>
          </mxGeometry>
        </mxCell>
        <mxCell id="JzE6JeNeijgl-ERopNni-168" value="&lt;div&gt;Encaminha&lt;/div&gt;&lt;div&gt;para:&lt;/div&gt;" style="text;html=1;resizable=0;points=[];autosize=1;align=center;verticalAlign=middle;spacingTop=-4;fontSize=11;fontFamily=Arial;" parent="JzE6JeNeijgl-ERopNni-48" vertex="1">
          <mxGeometry x="89" y="240" width="70" height="30" as="geometry"/>
        </mxCell>
        <mxCell id="JzE6JeNeijgl-ERopNni-249" style="edgeStyle=orthogonalEdgeStyle;rounded=0;orthogonalLoop=1;jettySize=auto;html=1;exitX=1;exitY=0.5;exitDx=0;exitDy=0;fontFamily=Arial;fontSize=11;fontColor=#000000;entryX=1;entryY=0.5;entryDx=0;entryDy=0;" parent="JzE6JeNeijgl-ERopNni-48" source="JzE6JeNeijgl-ERopNni-174" target="JzE6JeNeijgl-ERopNni-136" edge="1">
          <mxGeometry relative="1" as="geometry">
            <Array as="points">
              <mxPoint x="340" y="230"/>
              <mxPoint x="360" y="230"/>
              <mxPoint x="360" y="174"/>
            </Array>
          </mxGeometry>
        </mxCell>
        <mxCell id="JzE6JeNeijgl-ERopNni-253" style="edgeStyle=orthogonalEdgeStyle;rounded=0;orthogonalLoop=1;jettySize=auto;html=1;entryX=0.574;entryY=1.037;entryDx=0;entryDy=0;entryPerimeter=0;fontFamily=Arial;fontSize=11;fontColor=#000000;" parent="JzE6JeNeijgl-ERopNni-48" source="JzE6JeNeijgl-ERopNni-174" target="JzE6JeNeijgl-ERopNni-252" edge="1">
          <mxGeometry relative="1" as="geometry">
            <Array as="points">
              <mxPoint x="370" y="255"/>
              <mxPoint x="370" y="160"/>
              <mxPoint x="325" y="160"/>
            </Array>
          </mxGeometry>
        </mxCell>
        <mxCell id="JzE6JeNeijgl-ERopNni-174" value="&lt;div&gt;1.2 SUSR/SSRA (Água Regional)&lt;br&gt;&lt;/div&gt;&lt;div&gt;SUSM/SSMA (Água Metropolitana)&lt;br&gt;&lt;/div&gt;&lt;div&gt;SUES/SSES (Esgoto)&lt;br&gt;&lt;/div&gt;" style="rounded=1;whiteSpace=wrap;html=1;absoluteArcSize=1;arcSize=14;strokeWidth=1;fillColor=#ffffff;fontFamily=Arial;fontSize=11;align=center;fontStyle=3" parent="JzE6JeNeijgl-ERopNni-48" vertex="1">
          <mxGeometry x="198" y="220" width="142" height="70" as="geometry"/>
        </mxCell>
        <mxCell id="JzE6JeNeijgl-ERopNni-177" value="&lt;div&gt;Encaminha&lt;/div&gt;&lt;div&gt;para:&lt;/div&gt;" style="text;html=1;resizable=0;points=[];autosize=1;align=center;verticalAlign=middle;spacingTop=-4;fontSize=11;fontFamily=Arial;" parent="JzE6JeNeijgl-ERopNni-48" vertex="1">
          <mxGeometry x="250" y="310" width="70" height="30" as="geometry"/>
        </mxCell>
        <mxCell id="JzE6JeNeijgl-ERopNni-178" style="edgeStyle=orthogonalEdgeStyle;rounded=0;orthogonalLoop=1;jettySize=auto;html=1;fontFamily=Arial;fontSize=11;" parent="JzE6JeNeijgl-ERopNni-48" source="JzE6JeNeijgl-ERopNni-174" target="JzE6JeNeijgl-ERopNni-177" edge="1">
          <mxGeometry relative="1" as="geometry">
            <mxPoint x="285" y="414.0000000000001" as="targetPoint"/>
            <mxPoint x="285" y="344" as="sourcePoint"/>
            <Array as="points">
              <mxPoint x="285" y="310"/>
              <mxPoint x="285" y="310"/>
            </Array>
          </mxGeometry>
        </mxCell>
        <mxCell id="JzE6JeNeijgl-ERopNni-193" style="edgeStyle=orthogonalEdgeStyle;rounded=0;orthogonalLoop=1;jettySize=auto;html=1;fontFamily=Arial;fontSize=22;fontColor=#660066;exitX=0;exitY=0.5;exitDx=0;exitDy=0;" parent="JzE6JeNeijgl-ERopNni-48" source="JzE6JeNeijgl-ERopNni-181" target="JzE6JeNeijgl-ERopNni-166" edge="1">
          <mxGeometry relative="1" as="geometry"/>
        </mxCell>
        <mxCell id="JzE6JeNeijgl-ERopNni-181" value="1.3 Gerências Operacionais" style="rounded=1;whiteSpace=wrap;html=1;absoluteArcSize=1;arcSize=14;strokeWidth=1;fillColor=#ffffff;fontFamily=Arial;fontSize=11;align=center;fontStyle=3" parent="JzE6JeNeijgl-ERopNni-48" vertex="1">
          <mxGeometry x="224" y="372" width="120" height="46" as="geometry"/>
        </mxCell>
        <mxCell id="JzE6JeNeijgl-ERopNni-176" style="edgeStyle=orthogonalEdgeStyle;rounded=0;orthogonalLoop=1;jettySize=auto;html=1;fontFamily=Arial;fontSize=11;entryX=0.5;entryY=0;entryDx=0;entryDy=0;" parent="JzE6JeNeijgl-ERopNni-48" source="JzE6JeNeijgl-ERopNni-177" target="JzE6JeNeijgl-ERopNni-181" edge="1">
          <mxGeometry relative="1" as="geometry">
            <mxPoint x="285" y="380" as="targetPoint"/>
            <Array as="points">
              <mxPoint x="284" y="360"/>
              <mxPoint x="284" y="360"/>
            </Array>
          </mxGeometry>
        </mxCell>
        <mxCell id="JzE6JeNeijgl-ERopNni-186" value="4.0.00.00/DOM" style="text;html=1;resizable=0;autosize=1;align=center;verticalAlign=middle;points=[];fillColor=none;strokeColor=none;rounded=0;fontFamily=Arial;fontSize=22;fontColor=#660066;fontStyle=1;" parent="JzE6JeNeijgl-ERopNni-48" vertex="1">
          <mxGeometry x="240" y="670" width="160" height="30" as="geometry"/>
        </mxCell>
        <mxCell id="JzE6JeNeijgl-ERopNni-214" style="edgeStyle=orthogonalEdgeStyle;rounded=0;orthogonalLoop=1;jettySize=auto;html=1;entryX=0.512;entryY=1.159;entryDx=0;entryDy=0;entryPerimeter=0;fontFamily=Arial;fontSize=10;fontColor=#000000;" parent="JzE6JeNeijgl-ERopNni-48" source="JzE6JeNeijgl-ERopNni-194" target="JzE6JeNeijgl-ERopNni-213" edge="1">
          <mxGeometry relative="1" as="geometry">
            <Array as="points">
              <mxPoint x="390" y="531"/>
            </Array>
          </mxGeometry>
        </mxCell>
        <mxCell id="JzE6JeNeijgl-ERopNni-194" value="&lt;div&gt;2.1&lt;/div&gt;&lt;div&gt;Informações&lt;/div&gt;&lt;div&gt;são&lt;/div&gt;&lt;div&gt;suficientes?&lt;/div&gt;" style="strokeWidth=2;html=1;shape=mxgraph.flowchart.decision;whiteSpace=wrap;rounded=1;fillColor=#ffffff;fontFamily=Arial;fontSize=10;fontColor=#000000;align=center;verticalAlign=top;" parent="JzE6JeNeijgl-ERopNni-48" vertex="1">
          <mxGeometry x="264" y="490" width="94" height="82" as="geometry"/>
        </mxCell>
        <mxCell id="JzE6JeNeijgl-ERopNni-221" style="edgeStyle=orthogonalEdgeStyle;rounded=0;orthogonalLoop=1;jettySize=auto;html=1;entryX=0.5;entryY=0;entryDx=0;entryDy=0;entryPerimeter=0;fontFamily=Arial;fontSize=10;fontColor=#000000;" parent="JzE6JeNeijgl-ERopNni-48" source="JzE6JeNeijgl-ERopNni-196" target="JzE6JeNeijgl-ERopNni-198" edge="1">
          <mxGeometry relative="1" as="geometry"/>
        </mxCell>
        <mxCell id="JzE6JeNeijgl-ERopNni-196" value="2.2 Conclusão da análise e emissão da AVT no PUBLIX" style="rounded=1;whiteSpace=wrap;html=1;absoluteArcSize=1;arcSize=14;strokeWidth=2;fillColor=#ffffff;fontFamily=Arial;fontSize=10;fontColor=#000000;align=center;" parent="JzE6JeNeijgl-ERopNni-48" vertex="1">
          <mxGeometry x="85" y="504" width="100" height="54" as="geometry"/>
        </mxCell>
        <mxCell id="JzE6JeNeijgl-ERopNni-222" style="edgeStyle=orthogonalEdgeStyle;rounded=0;orthogonalLoop=1;jettySize=auto;html=1;fontFamily=Arial;fontSize=10;fontColor=#000000;" parent="JzE6JeNeijgl-ERopNni-48" source="JzE6JeNeijgl-ERopNni-198" target="JzE6JeNeijgl-ERopNni-220" edge="1">
          <mxGeometry relative="1" as="geometry">
            <Array as="points">
              <mxPoint x="165" y="650"/>
              <mxPoint x="165" y="650"/>
            </Array>
          </mxGeometry>
        </mxCell>
        <mxCell id="JzE6JeNeijgl-ERopNni-245" style="edgeStyle=orthogonalEdgeStyle;rounded=0;orthogonalLoop=1;jettySize=auto;html=1;fontFamily=Arial;fontSize=11;fontColor=#000000;" parent="JzE6JeNeijgl-ERopNni-48" source="JzE6JeNeijgl-ERopNni-198" target="JzE6JeNeijgl-ERopNni-244" edge="1">
          <mxGeometry relative="1" as="geometry">
            <Array as="points">
              <mxPoint x="60" y="612"/>
            </Array>
          </mxGeometry>
        </mxCell>
        <mxCell id="JzE6JeNeijgl-ERopNni-198" value="&lt;div&gt;&lt;br&gt;&lt;/div&gt;&lt;div&gt;2.3 AVT&lt;/div&gt;&lt;div&gt;SISTEMA PÚBLIX&lt;/div&gt;" style="strokeWidth=1;html=1;shape=mxgraph.flowchart.database;whiteSpace=wrap;rounded=1;fillColor=#ffffff;fontFamily=Arial;fontSize=10;fontColor=#000000;align=center;verticalAlign=middle;" parent="JzE6JeNeijgl-ERopNni-48" vertex="1">
          <mxGeometry x="82.5" y="581.5" width="105" height="60" as="geometry"/>
        </mxCell>
        <mxCell id="JzE6JeNeijgl-ERopNni-212" style="edgeStyle=orthogonalEdgeStyle;rounded=0;orthogonalLoop=1;jettySize=auto;html=1;entryX=1;entryY=0.5;entryDx=0;entryDy=0;fontFamily=Arial;fontSize=10;fontColor=#000000;" parent="JzE6JeNeijgl-ERopNni-48" source="JzE6JeNeijgl-ERopNni-209" target="JzE6JeNeijgl-ERopNni-196" edge="1">
          <mxGeometry relative="1" as="geometry"/>
        </mxCell>
        <mxCell id="JzE6JeNeijgl-ERopNni-209" value="Sim" style="text;html=1;resizable=0;points=[];autosize=1;align=center;verticalAlign=middle;spacingTop=-4;fontSize=11;fontFamily=Arial;fontStyle=2" parent="JzE6JeNeijgl-ERopNni-48" vertex="1">
          <mxGeometry x="215" y="526" width="20" height="10" as="geometry"/>
        </mxCell>
        <mxCell id="JzE6JeNeijgl-ERopNni-211" style="edgeStyle=orthogonalEdgeStyle;rounded=0;orthogonalLoop=1;jettySize=auto;html=1;fontFamily=Arial;fontSize=10;fontColor=#000000;" parent="JzE6JeNeijgl-ERopNni-48" source="JzE6JeNeijgl-ERopNni-194" target="JzE6JeNeijgl-ERopNni-209" edge="1">
          <mxGeometry relative="1" as="geometry">
            <mxPoint x="1002" y="611.0000000000001" as="sourcePoint"/>
            <mxPoint x="944.5" y="611.0000000000001" as="targetPoint"/>
            <Array as="points">
              <mxPoint x="229" y="531"/>
            </Array>
          </mxGeometry>
        </mxCell>
        <mxCell id="JzE6JeNeijgl-ERopNni-215" style="edgeStyle=orthogonalEdgeStyle;rounded=0;orthogonalLoop=1;jettySize=auto;html=1;entryX=1;entryY=0.5;entryDx=0;entryDy=0;entryPerimeter=0;fontFamily=Arial;fontSize=10;fontColor=#000000;" parent="JzE6JeNeijgl-ERopNni-48" source="JzE6JeNeijgl-ERopNni-213" target="JzE6JeNeijgl-ERopNni-237" edge="1">
          <mxGeometry relative="1" as="geometry">
            <mxPoint x="343.42857142857133" y="55.095238095238074" as="targetPoint"/>
            <Array as="points">
              <mxPoint x="390" y="55"/>
            </Array>
          </mxGeometry>
        </mxCell>
        <mxCell id="JzE6JeNeijgl-ERopNni-213" value="Não" style="text;html=1;resizable=0;points=[];autosize=1;align=center;verticalAlign=middle;spacingTop=-4;fontSize=11;fontFamily=Arial;fontStyle=2" parent="JzE6JeNeijgl-ERopNni-48" vertex="1">
          <mxGeometry x="370" y="362" width="40" height="10" as="geometry"/>
        </mxCell>
        <mxCell id="JzE6JeNeijgl-ERopNni-220" value="&lt;div&gt;2.5 Informe sobre a conclusão da&lt;/div&gt;&lt;div&gt;AVT e orienta procurar a GCLE&lt;/div&gt;" style="text;html=1;resizable=0;autosize=1;align=center;verticalAlign=middle;points=[];fillColor=none;strokeColor=none;rounded=0;fontFamily=Arial;fontSize=10;fontColor=#000000;fontStyle=2" parent="JzE6JeNeijgl-ERopNni-48" vertex="1">
          <mxGeometry x="65" y="670" width="170" height="30" as="geometry"/>
        </mxCell>
        <mxCell id="JzE6JeNeijgl-ERopNni-237" value="Contacta cliente e solicita complementos" style="strokeWidth=1;html=1;shape=mxgraph.flowchart.loop_limit;whiteSpace=wrap;rounded=1;labelBackgroundColor=none;fillColor=#FFFFFF;fontFamily=Arial;fontSize=9;fontColor=#000000;align=center;" parent="JzE6JeNeijgl-ERopNni-48" vertex="1">
          <mxGeometry x="230" y="40" width="104" height="30" as="geometry"/>
        </mxCell>
        <mxCell id="JzE6JeNeijgl-ERopNni-246" style="edgeStyle=orthogonalEdgeStyle;rounded=0;orthogonalLoop=1;jettySize=auto;html=1;entryX=0;entryY=0.75;entryDx=0;entryDy=0;fontFamily=Arial;fontSize=11;fontColor=#000000;" parent="JzE6JeNeijgl-ERopNni-48" source="JzE6JeNeijgl-ERopNni-244" target="JzE6JeNeijgl-ERopNni-174" edge="1">
          <mxGeometry relative="1" as="geometry">
            <Array as="points">
              <mxPoint x="60" y="273"/>
            </Array>
          </mxGeometry>
        </mxCell>
        <mxCell id="JzE6JeNeijgl-ERopNni-244" value="&lt;div&gt;2.4 Retorna&lt;/div&gt;&lt;div&gt;para&lt;/div&gt;" style="text;html=1;resizable=0;points=[];autosize=1;align=center;verticalAlign=middle;spacingTop=-4;fontSize=11;fontFamily=Arial;" parent="JzE6JeNeijgl-ERopNni-48" vertex="1">
          <mxGeometry x="25" y="380" width="70" height="30" as="geometry"/>
        </mxCell>
        <mxCell id="JzE6JeNeijgl-ERopNni-252" value="&lt;div&gt;3. Materialização da AVT&lt;/div&gt;&lt;div&gt;(Assinada)&lt;br&gt;&lt;/div&gt;" style="rounded=1;whiteSpace=wrap;html=1;absoluteArcSize=1;arcSize=14;strokeWidth=2;fillColor=#ffffff;fontFamily=Arial;fontSize=11;" parent="JzE6JeNeijgl-ERopNni-48" vertex="1">
          <mxGeometry x="250" y="80" width="130" height="50" as="geometry"/>
        </mxCell>
        <mxCell id="JzE6JeNeijgl-ERopNni-63" value="" style="edgeStyle=orthogonalEdgeStyle;rounded=0;orthogonalLoop=1;jettySize=auto;html=1;fontFamily=Arial;entryX=0;entryY=0.5;entryDx=0;entryDy=0;entryPerimeter=0;" parent="JzE6JeNeijgl-ERopNni-44" source="JzE6JeNeijgl-ERopNni-53" target="JzE6JeNeijgl-ERopNni-66" edge="1">
          <mxGeometry relative="1" as="geometry">
            <mxPoint x="385" y="456" as="targetPoint"/>
            <Array as="points">
              <mxPoint x="90" y="680"/>
              <mxPoint x="360" y="680"/>
              <mxPoint x="360" y="299"/>
            </Array>
          </mxGeometry>
        </mxCell>
        <mxCell id="JzE6JeNeijgl-ERopNni-96" style="edgeStyle=orthogonalEdgeStyle;rounded=0;orthogonalLoop=1;jettySize=auto;html=1;entryX=0.976;entryY=0.587;entryDx=0;entryDy=0;fontFamily=Arial;fontSize=11;entryPerimeter=0;exitX=0;exitY=0.5;exitDx=0;exitDy=0;" parent="JzE6JeNeijgl-ERopNni-44" source="JzE6JeNeijgl-ERopNni-108" target="JzE6JeNeijgl-ERopNni-94" edge="1">
          <mxGeometry relative="1" as="geometry">
            <mxPoint x="360" y="98" as="sourcePoint"/>
            <Array as="points">
              <mxPoint x="231" y="101"/>
              <mxPoint x="231" y="88"/>
            </Array>
          </mxGeometry>
        </mxCell>
        <mxCell id="JzE6JeNeijgl-ERopNni-150" value="D - ENCERRAMENTO" style="swimlane;html=1;startSize=20;fontFamily=Arial;" parent="JzE6JeNeijgl-ERopNni-44" vertex="1">
          <mxGeometry x="1100" y="20" width="350" height="720" as="geometry"/>
        </mxCell>
        <mxCell id="JzE6JeNeijgl-ERopNni-187" value="" style="whiteSpace=wrap;html=1;fontFamily=Arial;fontSize=11;fillColor=#fff2cc;strokeColor=#d6b656;dashed=1;strokeWidth=1;rounded=1;arcSize=3;" parent="JzE6JeNeijgl-ERopNni-150" vertex="1">
          <mxGeometry x="11" y="30" width="329" height="680" as="geometry"/>
        </mxCell>
        <mxCell id="JzE6JeNeijgl-ERopNni-188" value="5.0.06.00/GCLE" style="text;html=1;resizable=0;autosize=1;align=center;verticalAlign=middle;points=[];fillColor=none;strokeColor=none;rounded=0;fontFamily=Arial;fontSize=22;fontColor=#994C00;fontStyle=1" parent="JzE6JeNeijgl-ERopNni-150" vertex="1">
          <mxGeometry x="101.5" y="670" width="170" height="30" as="geometry"/>
        </mxCell>
        <mxCell id="JzE6JeNeijgl-ERopNni-242" style="edgeStyle=orthogonalEdgeStyle;rounded=0;orthogonalLoop=1;jettySize=auto;html=1;entryX=1;entryY=0.5;entryDx=0;entryDy=0;entryPerimeter=0;fontFamily=Arial;fontSize=11;fontColor=#000000;" parent="JzE6JeNeijgl-ERopNni-150" source="JzE6JeNeijgl-ERopNni-216" target="JzE6JeNeijgl-ERopNni-217" edge="1">
          <mxGeometry relative="1" as="geometry">
            <Array as="points">
              <mxPoint x="320" y="85"/>
              <mxPoint x="320" y="221"/>
            </Array>
          </mxGeometry>
        </mxCell>
        <mxCell id="JzE6JeNeijgl-ERopNni-216" value="1. Emissão da Guida de Pagamento" style="rounded=1;whiteSpace=wrap;html=1;absoluteArcSize=1;arcSize=14;strokeWidth=2;fillColor=#ffffff;fontFamily=Arial;fontSize=11;" parent="JzE6JeNeijgl-ERopNni-150" vertex="1">
          <mxGeometry x="175" y="60" width="127" height="50" as="geometry"/>
        </mxCell>
        <mxCell id="JzE6JeNeijgl-ERopNni-230" style="edgeStyle=orthogonalEdgeStyle;rounded=0;orthogonalLoop=1;jettySize=auto;html=1;fontFamily=Arial;fontSize=10;fontColor=#000000;" parent="JzE6JeNeijgl-ERopNni-150" source="JzE6JeNeijgl-ERopNni-217" target="JzE6JeNeijgl-ERopNni-228" edge="1">
          <mxGeometry relative="1" as="geometry"/>
        </mxCell>
        <mxCell id="JzE6JeNeijgl-ERopNni-233" style="edgeStyle=orthogonalEdgeStyle;rounded=0;orthogonalLoop=1;jettySize=auto;html=1;fontFamily=Arial;fontSize=10;fontColor=#000000;" parent="JzE6JeNeijgl-ERopNni-150" source="JzE6JeNeijgl-ERopNni-217" target="JzE6JeNeijgl-ERopNni-232" edge="1">
          <mxGeometry relative="1" as="geometry"/>
        </mxCell>
        <mxCell id="JzE6JeNeijgl-ERopNni-217" value="Pagamento efetuado?" style="strokeWidth=2;html=1;shape=mxgraph.flowchart.decision;whiteSpace=wrap;rounded=1;fillColor=#ffffff;fontFamily=Arial;fontSize=10;fontColor=#000000;align=center;" parent="JzE6JeNeijgl-ERopNni-150" vertex="1">
          <mxGeometry x="189.5" y="180" width="94" height="82" as="geometry"/>
        </mxCell>
        <mxCell id="JzE6JeNeijgl-ERopNni-240" style="edgeStyle=orthogonalEdgeStyle;rounded=0;orthogonalLoop=1;jettySize=auto;html=1;fontFamily=Arial;fontSize=11;fontColor=#000000;" parent="JzE6JeNeijgl-ERopNni-150" source="JzE6JeNeijgl-ERopNni-218" target="JzE6JeNeijgl-ERopNni-224" edge="1">
          <mxGeometry relative="1" as="geometry"/>
        </mxCell>
        <mxCell id="JzE6JeNeijgl-ERopNni-218" value="Retirada da AVT" style="rounded=1;whiteSpace=wrap;html=1;absoluteArcSize=1;arcSize=14;strokeWidth=2;fillColor=#ffffff;fontFamily=Arial;fontSize=11;" parent="JzE6JeNeijgl-ERopNni-150" vertex="1">
          <mxGeometry x="173" y="340" width="127" height="50" as="geometry"/>
        </mxCell>
        <mxCell id="JzE6JeNeijgl-ERopNni-224" value="Encerramento" style="strokeWidth=2;html=1;shape=mxgraph.flowchart.terminator;whiteSpace=wrap;rounded=1;labelBackgroundColor=none;fontFamily=Arial;fontSize=10;align=center;" parent="JzE6JeNeijgl-ERopNni-150" vertex="1">
          <mxGeometry x="186.5" y="440" width="100" height="60" as="geometry"/>
        </mxCell>
        <mxCell id="JzE6JeNeijgl-ERopNni-231" style="edgeStyle=orthogonalEdgeStyle;rounded=0;orthogonalLoop=1;jettySize=auto;html=1;fontFamily=Arial;fontSize=10;fontColor=#000000;" parent="JzE6JeNeijgl-ERopNni-150" source="JzE6JeNeijgl-ERopNni-228" target="JzE6JeNeijgl-ERopNni-218" edge="1">
          <mxGeometry relative="1" as="geometry"/>
        </mxCell>
        <mxCell id="JzE6JeNeijgl-ERopNni-228" value="Sim" style="text;html=1;resizable=0;autosize=1;align=center;verticalAlign=middle;points=[];fillColor=none;strokeColor=none;rounded=0;labelBackgroundColor=none;fontFamily=Arial;fontSize=10;fontColor=#000000;" parent="JzE6JeNeijgl-ERopNni-150" vertex="1">
          <mxGeometry x="221.5" y="290" width="30" height="20" as="geometry"/>
        </mxCell>
        <mxCell id="JzE6JeNeijgl-ERopNni-235" style="edgeStyle=orthogonalEdgeStyle;rounded=0;orthogonalLoop=1;jettySize=auto;html=1;fontFamily=Arial;fontSize=10;fontColor=#000000;entryX=0.5;entryY=0;entryDx=0;entryDy=0;entryPerimeter=0;" parent="JzE6JeNeijgl-ERopNni-150" source="JzE6JeNeijgl-ERopNni-232" target="JzE6JeNeijgl-ERopNni-238" edge="1">
          <mxGeometry relative="1" as="geometry">
            <mxPoint x="87" y="260" as="targetPoint"/>
            <Array as="points">
              <mxPoint x="100" y="221"/>
            </Array>
          </mxGeometry>
        </mxCell>
        <mxCell id="JzE6JeNeijgl-ERopNni-232" value="Não" style="text;html=1;resizable=0;autosize=1;align=center;verticalAlign=middle;points=[];fillColor=none;strokeColor=none;rounded=0;labelBackgroundColor=none;fontFamily=Arial;fontSize=10;fontColor=#000000;" parent="JzE6JeNeijgl-ERopNni-150" vertex="1">
          <mxGeometry x="120" y="211" width="30" height="20" as="geometry"/>
        </mxCell>
        <mxCell id="JzE6JeNeijgl-ERopNni-236" style="edgeStyle=orthogonalEdgeStyle;rounded=0;orthogonalLoop=1;jettySize=auto;html=1;entryX=0.5;entryY=0;entryDx=0;entryDy=0;entryPerimeter=0;fontFamily=Arial;fontSize=10;fontColor=#000000;exitX=0;exitY=0.682;exitDx=0;exitDy=0;exitPerimeter=0;" parent="JzE6JeNeijgl-ERopNni-150" source="JzE6JeNeijgl-ERopNni-238" target="JzE6JeNeijgl-ERopNni-217" edge="1">
          <mxGeometry relative="1" as="geometry">
            <mxPoint x="50.333333333333485" y="260" as="sourcePoint"/>
            <Array as="points">
              <mxPoint x="20" y="300"/>
              <mxPoint x="20" y="160"/>
              <mxPoint x="236" y="160"/>
            </Array>
          </mxGeometry>
        </mxCell>
        <mxCell id="JzE6JeNeijgl-ERopNni-238" value="Aguarda compensação e/ou comprovação presencial" style="strokeWidth=1;html=1;shape=mxgraph.flowchart.loop_limit;whiteSpace=wrap;rounded=1;labelBackgroundColor=none;fillColor=#FFFFFF;fontFamily=Arial;fontSize=11;fontColor=#000000;align=center;" parent="JzE6JeNeijgl-ERopNni-150" vertex="1">
          <mxGeometry x="30" y="263" width="140" height="55" as="geometry"/>
        </mxCell>
        <mxCell id="JzE6JeNeijgl-ERopNni-257" style="edgeStyle=orthogonalEdgeStyle;rounded=0;orthogonalLoop=1;jettySize=auto;html=1;entryX=0;entryY=0.5;entryDx=0;entryDy=0;fontFamily=Arial;fontSize=11;fontColor=#000000;" parent="JzE6JeNeijgl-ERopNni-150" source="JzE6JeNeijgl-ERopNni-255" target="JzE6JeNeijgl-ERopNni-216" edge="1">
          <mxGeometry relative="1" as="geometry"/>
        </mxCell>
        <mxCell id="JzE6JeNeijgl-ERopNni-255" value="&lt;div&gt;C-3.1&lt;/div&gt;&lt;div&gt;Encaminha&lt;/div&gt;&lt;div&gt;para GCLE&lt;br&gt;&lt;/div&gt;" style="text;html=1;resizable=0;autosize=1;align=center;verticalAlign=middle;points=[];fillColor=none;strokeColor=none;rounded=0;fontFamily=Arial;fontSize=11;fontStyle=2" parent="JzE6JeNeijgl-ERopNni-150" vertex="1">
          <mxGeometry x="60" y="65" width="70" height="40" as="geometry"/>
        </mxCell>
        <mxCell id="JzE6JeNeijgl-ERopNni-165" style="edgeStyle=orthogonalEdgeStyle;rounded=0;orthogonalLoop=1;jettySize=auto;html=1;entryX=0;entryY=0.5;entryDx=0;entryDy=0;fontFamily=Arial;fontSize=11;" parent="JzE6JeNeijgl-ERopNni-44" source="JzE6JeNeijgl-ERopNni-130" target="JzE6JeNeijgl-ERopNni-124" edge="1">
          <mxGeometry relative="1" as="geometry">
            <Array as="points">
              <mxPoint x="700" y="680"/>
              <mxPoint x="700" y="125"/>
            </Array>
          </mxGeometry>
        </mxCell>
        <mxCell id="JzE6JeNeijgl-ERopNni-206" style="edgeStyle=orthogonalEdgeStyle;rounded=0;orthogonalLoop=1;jettySize=auto;html=1;entryX=0.75;entryY=0.25;entryDx=0;entryDy=0;entryPerimeter=0;fontFamily=Arial;fontSize=10;fontColor=#000000;exitX=0.015;exitY=0.63;exitDx=0;exitDy=0;exitPerimeter=0;" parent="JzE6JeNeijgl-ERopNni-44" source="JzE6JeNeijgl-ERopNni-237" target="JzE6JeNeijgl-ERopNni-94" edge="1">
          <mxGeometry relative="1" as="geometry">
            <mxPoint x="780" y="67.95238095238096" as="sourcePoint"/>
            <Array as="points">
              <mxPoint x="868" y="68"/>
            </Array>
          </mxGeometry>
        </mxCell>
        <mxCell id="JzE6JeNeijgl-ERopNni-223" style="edgeStyle=orthogonalEdgeStyle;rounded=0;orthogonalLoop=1;jettySize=auto;html=1;entryX=0.1;entryY=0.5;entryDx=0;entryDy=0;entryPerimeter=0;fontFamily=Arial;fontSize=10;fontColor=#000000;" parent="JzE6JeNeijgl-ERopNni-44" source="JzE6JeNeijgl-ERopNni-220" target="JzE6JeNeijgl-ERopNni-94" edge="1">
          <mxGeometry relative="1" as="geometry">
            <Array as="points">
              <mxPoint x="20" y="720"/>
              <mxPoint x="20" y="83"/>
            </Array>
          </mxGeometry>
        </mxCell>
        <mxCell id="JzE6JeNeijgl-ERopNni-256" style="edgeStyle=orthogonalEdgeStyle;rounded=0;orthogonalLoop=1;jettySize=auto;html=1;fontFamily=Arial;fontSize=11;fontColor=#000000;" parent="JzE6JeNeijgl-ERopNni-44" source="JzE6JeNeijgl-ERopNni-252" target="JzE6JeNeijgl-ERopNni-255" edge="1">
          <mxGeometry relative="1" as="geometry">
            <Array as="points">
              <mxPoint x="1130" y="125"/>
              <mxPoint x="1130" y="105"/>
            </Array>
          </mxGeometry>
        </mxCell>
        <mxCell id="JzE6JeNeijgl-ERopNni-156" value="&lt;div&gt;Protocolo SPD&lt;/div&gt;&lt;div&gt;(Protocolo principal)&lt;br&gt;&lt;/div&gt;" style="strokeWidth=2;html=1;shape=mxgraph.flowchart.document2;whiteSpace=wrap;size=0.25;fontFamily=Arial;verticalAlign=top;" parent="1" vertex="1">
          <mxGeometry x="1635" y="598" width="130" height="60" as="geometry"/>
        </mxCell>
        <mxCell id="5Yxx8I05CL2mqf56QJ3Y-3" value="&lt;font style=&quot;font-size: 14px&quot;&gt;ANÁLISE DE VIABILIDADE TÉCNICA&lt;/font&gt;" style="swimlane;html=1;childLayout=stackLayout;resizeParent=1;resizeParentMax=0;startSize=20;fontFamily=Arial;fontStyle=3;verticalAlign=bottom;" vertex="1" parent="1">
          <mxGeometry x="100.5" y="80" width="1450" height="740" as="geometry"/>
        </mxCell>
        <mxCell id="5Yxx8I05CL2mqf56QJ3Y-4" value="A - SOLICITAÇÃO" style="swimlane;html=1;startSize=20;fontFamily=Arial;fontStyle=2" vertex="1" parent="5Yxx8I05CL2mqf56QJ3Y-3">
          <mxGeometry y="20" width="340" height="720" as="geometry"/>
        </mxCell>
        <mxCell id="5Yxx8I05CL2mqf56QJ3Y-5" value="" style="whiteSpace=wrap;html=1;fontFamily=Arial;fontSize=11;fillColor=#fff2cc;strokeColor=#d6b656;dashed=1;strokeWidth=1;rounded=1;arcSize=3;" vertex="1" parent="5Yxx8I05CL2mqf56QJ3Y-4">
          <mxGeometry x="10" y="110" width="320" height="600" as="geometry"/>
        </mxCell>
        <mxCell id="5Yxx8I05CL2mqf56QJ3Y-6" value="" style="edgeStyle=orthogonalEdgeStyle;rounded=0;orthogonalLoop=1;jettySize=auto;html=1;fontFamily=Arial;exitX=0.5;exitY=1;exitDx=0;exitDy=0;exitPerimeter=0;entryX=0.5;entryY=0;entryDx=0;entryDy=0;entryPerimeter=0;" edge="1" parent="5Yxx8I05CL2mqf56QJ3Y-4" source="5Yxx8I05CL2mqf56QJ3Y-8" target="5Yxx8I05CL2mqf56QJ3Y-15">
          <mxGeometry relative="1" as="geometry">
            <mxPoint x="170" y="288" as="targetPoint"/>
            <Array as="points">
              <mxPoint x="135" y="278"/>
              <mxPoint x="215" y="278"/>
            </Array>
          </mxGeometry>
        </mxCell>
        <mxCell id="5Yxx8I05CL2mqf56QJ3Y-7" style="edgeStyle=orthogonalEdgeStyle;rounded=0;orthogonalLoop=1;jettySize=auto;html=1;entryX=0;entryY=0.5;entryDx=0;entryDy=0;entryPerimeter=0;fontFamily=Arial;" edge="1" parent="5Yxx8I05CL2mqf56QJ3Y-4" source="5Yxx8I05CL2mqf56QJ3Y-8" target="5Yxx8I05CL2mqf56QJ3Y-12">
          <mxGeometry relative="1" as="geometry"/>
        </mxCell>
        <mxCell id="5Yxx8I05CL2mqf56QJ3Y-8" value="1. Checklist" style="strokeWidth=2;html=1;shape=mxgraph.flowchart.start_1;whiteSpace=wrap;fontFamily=Arial;fontStyle=1" vertex="1" parent="5Yxx8I05CL2mqf56QJ3Y-4">
          <mxGeometry x="85" y="198" width="100" height="60" as="geometry"/>
        </mxCell>
        <mxCell id="5Yxx8I05CL2mqf56QJ3Y-9" value="" style="edgeStyle=orthogonalEdgeStyle;rounded=0;orthogonalLoop=1;jettySize=auto;html=1;fontFamily=Arial;entryX=0;entryY=0.5;entryDx=0;entryDy=0;entryPerimeter=0;" edge="1" parent="5Yxx8I05CL2mqf56QJ3Y-4" source="5Yxx8I05CL2mqf56QJ3Y-10" target="5Yxx8I05CL2mqf56QJ3Y-11">
          <mxGeometry relative="1" as="geometry">
            <mxPoint x="245" y="566" as="targetPoint"/>
          </mxGeometry>
        </mxCell>
        <mxCell id="5Yxx8I05CL2mqf56QJ3Y-10" value="2. Abertura" style="rounded=1;whiteSpace=wrap;html=1;absoluteArcSize=1;arcSize=14;strokeWidth=2;fontFamily=Arial;fontStyle=1" vertex="1" parent="5Yxx8I05CL2mqf56QJ3Y-4">
          <mxGeometry x="45" y="528" width="90" height="60" as="geometry"/>
        </mxCell>
        <mxCell id="5Yxx8I05CL2mqf56QJ3Y-11" value="&lt;div&gt;Protocolo SPD&lt;/div&gt;&lt;div&gt;(Protocolo principal)&lt;br&gt;&lt;/div&gt;" style="strokeWidth=2;html=1;shape=mxgraph.flowchart.document2;whiteSpace=wrap;size=0.25;fontFamily=Arial;verticalAlign=top;" vertex="1" parent="5Yxx8I05CL2mqf56QJ3Y-4">
          <mxGeometry x="185" y="468" width="130" height="60" as="geometry"/>
        </mxCell>
        <mxCell id="5Yxx8I05CL2mqf56QJ3Y-12" value="&lt;div align=&quot;left&quot;&gt;Documentação&lt;/div&gt;" style="strokeWidth=2;html=1;shape=mxgraph.flowchart.multi-document;whiteSpace=wrap;fontFamily=Arial;align=left;verticalAlign=middle;" vertex="1" parent="5Yxx8I05CL2mqf56QJ3Y-4">
          <mxGeometry x="205" y="198" width="110" height="60" as="geometry"/>
        </mxCell>
        <mxCell id="5Yxx8I05CL2mqf56QJ3Y-13" style="edgeStyle=orthogonalEdgeStyle;rounded=0;orthogonalLoop=1;jettySize=auto;html=1;entryX=0.5;entryY=0;entryDx=0;entryDy=0;fontFamily=Arial;" edge="1" parent="5Yxx8I05CL2mqf56QJ3Y-4" source="5Yxx8I05CL2mqf56QJ3Y-16" target="5Yxx8I05CL2mqf56QJ3Y-10">
          <mxGeometry relative="1" as="geometry"/>
        </mxCell>
        <mxCell id="5Yxx8I05CL2mqf56QJ3Y-14" style="edgeStyle=orthogonalEdgeStyle;rounded=0;orthogonalLoop=1;jettySize=auto;html=1;fontFamily=Arial;fontSize=11;" edge="1" parent="5Yxx8I05CL2mqf56QJ3Y-4" source="5Yxx8I05CL2mqf56QJ3Y-21" target="5Yxx8I05CL2mqf56QJ3Y-20">
          <mxGeometry relative="1" as="geometry">
            <Array as="points">
              <mxPoint x="60" y="268"/>
              <mxPoint x="60" y="268"/>
            </Array>
          </mxGeometry>
        </mxCell>
        <mxCell id="5Yxx8I05CL2mqf56QJ3Y-15" value="Documentação completa?" style="strokeWidth=2;html=1;shape=mxgraph.flowchart.decision;whiteSpace=wrap;fontFamily=Arial;" vertex="1" parent="5Yxx8I05CL2mqf56QJ3Y-4">
          <mxGeometry x="150" y="328" width="130" height="100" as="geometry"/>
        </mxCell>
        <mxCell id="5Yxx8I05CL2mqf56QJ3Y-16" value="Sim" style="text;html=1;resizable=0;autosize=1;align=center;verticalAlign=middle;points=[];fillColor=none;strokeColor=none;rounded=0;fontFamily=Arial;fontSize=11;fontStyle=2" vertex="1" parent="5Yxx8I05CL2mqf56QJ3Y-4">
          <mxGeometry x="70" y="478" width="40" height="20" as="geometry"/>
        </mxCell>
        <mxCell id="5Yxx8I05CL2mqf56QJ3Y-17" style="edgeStyle=orthogonalEdgeStyle;rounded=0;orthogonalLoop=1;jettySize=auto;html=1;entryX=0.5;entryY=0;entryDx=0;entryDy=0;fontFamily=Arial;exitX=0.5;exitY=1;exitDx=0;exitDy=0;exitPerimeter=0;" edge="1" parent="5Yxx8I05CL2mqf56QJ3Y-4" source="5Yxx8I05CL2mqf56QJ3Y-15" target="5Yxx8I05CL2mqf56QJ3Y-16">
          <mxGeometry relative="1" as="geometry">
            <mxPoint x="85" y="468" as="sourcePoint"/>
            <mxPoint x="85" y="578" as="targetPoint"/>
            <Array as="points">
              <mxPoint x="215" y="448"/>
              <mxPoint x="90" y="448"/>
            </Array>
          </mxGeometry>
        </mxCell>
        <mxCell id="5Yxx8I05CL2mqf56QJ3Y-18" style="edgeStyle=orthogonalEdgeStyle;rounded=0;orthogonalLoop=1;jettySize=auto;html=1;fontFamily=Arial;entryX=0.5;entryY=0;entryDx=0;entryDy=0;entryPerimeter=0;exitX=1;exitY=0.75;exitDx=0;exitDy=0;" edge="1" parent="5Yxx8I05CL2mqf56QJ3Y-4" source="5Yxx8I05CL2mqf56QJ3Y-23" target="5Yxx8I05CL2mqf56QJ3Y-8">
          <mxGeometry relative="1" as="geometry">
            <mxPoint x="90" y="64" as="sourcePoint"/>
            <mxPoint x="110" y="138" as="targetPoint"/>
            <Array as="points">
              <mxPoint x="135" y="78"/>
            </Array>
          </mxGeometry>
        </mxCell>
        <mxCell id="5Yxx8I05CL2mqf56QJ3Y-19" style="edgeStyle=orthogonalEdgeStyle;rounded=0;orthogonalLoop=1;jettySize=auto;html=1;fontFamily=Arial;" edge="1" parent="5Yxx8I05CL2mqf56QJ3Y-4" source="5Yxx8I05CL2mqf56QJ3Y-20">
          <mxGeometry relative="1" as="geometry">
            <mxPoint x="60" y="98" as="targetPoint"/>
          </mxGeometry>
        </mxCell>
        <mxCell id="5Yxx8I05CL2mqf56QJ3Y-20" value="&lt;div style=&quot;font-size: 10px&quot;&gt;&lt;i style=&quot;font-size: 10px&quot;&gt;Esclarece&lt;/i&gt;&lt;/div&gt;&lt;div style=&quot;font-size: 10px&quot;&gt;&lt;i style=&quot;font-size: 10px&quot;&gt;o cliente&lt;/i&gt;&lt;/div&gt;&lt;div style=&quot;font-size: 10px&quot;&gt;&lt;i style=&quot;font-size: 10px&quot;&gt;e encerra&lt;/i&gt;&lt;/div&gt;&lt;div style=&quot;font-size: 10px&quot;&gt;&lt;i style=&quot;font-size: 10px&quot;&gt;o atendimento&lt;br style=&quot;font-size: 10px&quot;&gt;&lt;/i&gt; &lt;/div&gt;" style="text;html=1;resizable=0;autosize=1;align=center;verticalAlign=middle;points=[];fillColor=none;strokeColor=none;rounded=0;fontFamily=Arial;fontSize=10;direction=south;" vertex="1" parent="5Yxx8I05CL2mqf56QJ3Y-4">
          <mxGeometry x="20" y="141" width="80" height="50" as="geometry"/>
        </mxCell>
        <mxCell id="5Yxx8I05CL2mqf56QJ3Y-21" value="Não" style="text;html=1;resizable=0;autosize=1;align=center;verticalAlign=middle;points=[];fillColor=none;strokeColor=none;rounded=0;fontFamily=Arial;fontSize=11;fontStyle=2" vertex="1" parent="5Yxx8I05CL2mqf56QJ3Y-4">
          <mxGeometry x="38" y="298" width="40" height="20" as="geometry"/>
        </mxCell>
        <mxCell id="5Yxx8I05CL2mqf56QJ3Y-22" style="edgeStyle=orthogonalEdgeStyle;rounded=0;orthogonalLoop=1;jettySize=auto;html=1;entryX=0.503;entryY=1.067;entryDx=0;entryDy=0;entryPerimeter=0;fontFamily=Arial;fontSize=11;" edge="1" parent="5Yxx8I05CL2mqf56QJ3Y-4" source="5Yxx8I05CL2mqf56QJ3Y-15" target="5Yxx8I05CL2mqf56QJ3Y-21">
          <mxGeometry relative="1" as="geometry">
            <mxPoint x="170" y="420" as="sourcePoint"/>
            <mxPoint x="80.33333333333337" y="213.33333333333337" as="targetPoint"/>
            <Array as="points">
              <mxPoint x="58" y="378"/>
            </Array>
          </mxGeometry>
        </mxCell>
        <mxCell id="5Yxx8I05CL2mqf56QJ3Y-23" value="&lt;span style=&quot;&quot;&gt;Cliente&lt;/span&gt;" style="shape=actor;whiteSpace=wrap;html=1;rounded=1;strokeColor=#000000;strokeWidth=2;fillColor=#B3B3B3;fontFamily=Arial;fontSize=11;verticalAlign=bottom;labelBackgroundColor=none;" vertex="1" parent="5Yxx8I05CL2mqf56QJ3Y-4">
          <mxGeometry x="35" y="33" width="50" height="60" as="geometry"/>
        </mxCell>
        <mxCell id="5Yxx8I05CL2mqf56QJ3Y-24" style="edgeStyle=orthogonalEdgeStyle;rounded=0;orthogonalLoop=1;jettySize=auto;html=1;entryX=0;entryY=0.75;entryDx=0;entryDy=0;entryPerimeter=0;fontFamily=Arial;fontSize=11;exitX=0;exitY=0.5;exitDx=0;exitDy=0;exitPerimeter=0;" edge="1" parent="5Yxx8I05CL2mqf56QJ3Y-4" source="5Yxx8I05CL2mqf56QJ3Y-25" target="5Yxx8I05CL2mqf56QJ3Y-11">
          <mxGeometry relative="1" as="geometry">
            <Array as="points">
              <mxPoint x="165" y="608"/>
              <mxPoint x="165" y="513"/>
            </Array>
          </mxGeometry>
        </mxCell>
        <mxCell id="5Yxx8I05CL2mqf56QJ3Y-25" value="&lt;div&gt;&lt;i&gt;2.1 Anexar arquivo&lt;/i&gt;&lt;/div&gt;&lt;div align=&quot;left&quot;&gt;&lt;i&gt;digital do Partido&lt;/i&gt;&lt;/div&gt;&lt;div align=&quot;left&quot;&gt;&lt;i&gt;Urbanístico no SPD&lt;/i&gt;&lt;br&gt;&lt;/div&gt;" style="strokeWidth=2;html=1;shape=mxgraph.flowchart.annotation_2;align=left;labelPosition=right;pointerEvents=1;rounded=1;fillColor=#ffffff;fontFamily=Arial;fontSize=11;" vertex="1" parent="5Yxx8I05CL2mqf56QJ3Y-4">
          <mxGeometry x="185" y="580" width="25" height="56" as="geometry"/>
        </mxCell>
        <mxCell id="5Yxx8I05CL2mqf56QJ3Y-26" value="5.0.06.00/GCLE" style="text;html=1;resizable=0;autosize=1;align=center;verticalAlign=middle;points=[];fillColor=none;strokeColor=none;rounded=0;fontFamily=Arial;fontSize=22;fontColor=#994C00;fontStyle=1" vertex="1" parent="5Yxx8I05CL2mqf56QJ3Y-4">
          <mxGeometry x="150" y="123" width="170" height="30" as="geometry"/>
        </mxCell>
        <mxCell id="5Yxx8I05CL2mqf56QJ3Y-27" value="B - VERIFICAÇÃO DE DÉBITOS" style="swimlane;html=1;startSize=20;fontFamily=Arial;" vertex="1" parent="5Yxx8I05CL2mqf56QJ3Y-3">
          <mxGeometry x="340" y="20" width="340" height="720" as="geometry"/>
        </mxCell>
        <mxCell id="5Yxx8I05CL2mqf56QJ3Y-28" value="" style="whiteSpace=wrap;html=1;fontFamily=Arial;fontSize=11;fillColor=#d5e8d4;strokeColor=#82b366;dashed=1;strokeWidth=1;rounded=1;arcSize=3;" vertex="1" parent="5Yxx8I05CL2mqf56QJ3Y-27">
          <mxGeometry x="10" y="30" width="320" height="680" as="geometry"/>
        </mxCell>
        <mxCell id="5Yxx8I05CL2mqf56QJ3Y-29" value="" style="edgeStyle=orthogonalEdgeStyle;rounded=0;orthogonalLoop=1;jettySize=auto;html=1;fontFamily=Arial;entryX=0.5;entryY=0;entryDx=0;entryDy=0;entryPerimeter=0;" edge="1" parent="5Yxx8I05CL2mqf56QJ3Y-27" source="5Yxx8I05CL2mqf56QJ3Y-30" target="5Yxx8I05CL2mqf56QJ3Y-33">
          <mxGeometry relative="1" as="geometry">
            <mxPoint x="90" y="178" as="targetPoint"/>
          </mxGeometry>
        </mxCell>
        <mxCell id="5Yxx8I05CL2mqf56QJ3Y-30" value="&lt;font style=&quot;font-size: 12px&quot; face=&quot;Arial&quot;&gt;1. &lt;span style=&quot;background-color: transparent ; font-weight: 700 ; font-variant: normal ; text-decoration: none ; vertical-align: baseline ; white-space: pre-wrap&quot; id=&quot;docs-internal-guid-7abce273-7fff-0287-8ae0-c73eb1ac15d4&quot;&gt;Consulta situação de débitos (GSAN)&lt;/span&gt;&lt;/font&gt;" style="rounded=1;whiteSpace=wrap;html=1;absoluteArcSize=1;arcSize=14;strokeWidth=2;fontFamily=Arial;fontStyle=1" vertex="1" parent="5Yxx8I05CL2mqf56QJ3Y-27">
          <mxGeometry x="20" y="118" width="130" height="60" as="geometry"/>
        </mxCell>
        <mxCell id="5Yxx8I05CL2mqf56QJ3Y-31" style="edgeStyle=orthogonalEdgeStyle;rounded=0;orthogonalLoop=1;jettySize=auto;html=1;fontFamily=Arial;fontSize=11;" edge="1" parent="5Yxx8I05CL2mqf56QJ3Y-27" source="5Yxx8I05CL2mqf56QJ3Y-33" target="5Yxx8I05CL2mqf56QJ3Y-35">
          <mxGeometry relative="1" as="geometry"/>
        </mxCell>
        <mxCell id="5Yxx8I05CL2mqf56QJ3Y-32" value="" style="edgeStyle=orthogonalEdgeStyle;rounded=0;orthogonalLoop=1;jettySize=auto;html=1;fontFamily=Arial;fontSize=11;entryX=0.5;entryY=0;entryDx=0;entryDy=0;" edge="1" parent="5Yxx8I05CL2mqf56QJ3Y-27" source="5Yxx8I05CL2mqf56QJ3Y-36" target="5Yxx8I05CL2mqf56QJ3Y-40">
          <mxGeometry relative="1" as="geometry">
            <mxPoint x="130" y="400" as="targetPoint"/>
          </mxGeometry>
        </mxCell>
        <mxCell id="5Yxx8I05CL2mqf56QJ3Y-33" value="Há débitos?" style="strokeWidth=2;html=1;shape=mxgraph.flowchart.decision;whiteSpace=wrap;fontFamily=Arial;" vertex="1" parent="5Yxx8I05CL2mqf56QJ3Y-27">
          <mxGeometry x="80" y="238" width="100" height="82" as="geometry"/>
        </mxCell>
        <mxCell id="5Yxx8I05CL2mqf56QJ3Y-34" style="edgeStyle=orthogonalEdgeStyle;rounded=0;orthogonalLoop=1;jettySize=auto;html=1;fontFamily=Arial;fontSize=11;entryX=1;entryY=0.5;entryDx=0;entryDy=0;exitX=1;exitY=0.5;exitDx=0;exitDy=0;exitPerimeter=0;" edge="1" parent="5Yxx8I05CL2mqf56QJ3Y-27" source="5Yxx8I05CL2mqf56QJ3Y-35" target="5Yxx8I05CL2mqf56QJ3Y-38">
          <mxGeometry relative="1" as="geometry">
            <mxPoint x="200" y="301" as="sourcePoint"/>
            <mxPoint x="171.16666666666674" y="49.66666666666674" as="targetPoint"/>
            <Array as="points">
              <mxPoint x="320" y="279"/>
              <mxPoint x="320" y="81"/>
            </Array>
          </mxGeometry>
        </mxCell>
        <mxCell id="5Yxx8I05CL2mqf56QJ3Y-35" value="Sim" style="text;html=1;resizable=0;autosize=1;align=center;verticalAlign=middle;points=[];fillColor=none;strokeColor=none;rounded=0;fontFamily=Arial;fontSize=11;" vertex="1" parent="5Yxx8I05CL2mqf56QJ3Y-27">
          <mxGeometry x="255" y="269" width="30" height="20" as="geometry"/>
        </mxCell>
        <mxCell id="5Yxx8I05CL2mqf56QJ3Y-36" value="Não" style="text;html=1;resizable=0;autosize=1;align=center;verticalAlign=middle;points=[];fillColor=none;strokeColor=none;rounded=0;fontFamily=Arial;fontSize=11;" vertex="1" parent="5Yxx8I05CL2mqf56QJ3Y-27">
          <mxGeometry x="110" y="345" width="40" height="20" as="geometry"/>
        </mxCell>
        <mxCell id="5Yxx8I05CL2mqf56QJ3Y-37" value="" style="edgeStyle=orthogonalEdgeStyle;rounded=0;orthogonalLoop=1;jettySize=auto;html=1;fontFamily=Arial;fontSize=11;" edge="1" parent="5Yxx8I05CL2mqf56QJ3Y-27" source="5Yxx8I05CL2mqf56QJ3Y-33" target="5Yxx8I05CL2mqf56QJ3Y-36">
          <mxGeometry relative="1" as="geometry">
            <mxPoint x="490" y="362" as="sourcePoint"/>
            <mxPoint x="490" y="441.9999999999999" as="targetPoint"/>
          </mxGeometry>
        </mxCell>
        <mxCell id="5Yxx8I05CL2mqf56QJ3Y-38" value="Contacta o cliente para regualrização do débito" style="rounded=1;whiteSpace=wrap;html=1;absoluteArcSize=1;arcSize=14;strokeWidth=2;fillColor=#ffffff;fontFamily=Arial;fontSize=11;" vertex="1" parent="5Yxx8I05CL2mqf56QJ3Y-27">
          <mxGeometry x="50" y="60" width="160" height="42" as="geometry"/>
        </mxCell>
        <mxCell id="5Yxx8I05CL2mqf56QJ3Y-39" value="" style="edgeStyle=orthogonalEdgeStyle;rounded=0;orthogonalLoop=1;jettySize=auto;html=1;fontFamily=Arial;fontSize=11;" edge="1" parent="5Yxx8I05CL2mqf56QJ3Y-27" source="5Yxx8I05CL2mqf56QJ3Y-40" target="5Yxx8I05CL2mqf56QJ3Y-43">
          <mxGeometry relative="1" as="geometry">
            <mxPoint x="195" y="458.0000000000001" as="targetPoint"/>
          </mxGeometry>
        </mxCell>
        <mxCell id="5Yxx8I05CL2mqf56QJ3Y-40" value="2. Emissão da Certidão Negativa" style="rounded=1;whiteSpace=wrap;html=1;absoluteArcSize=1;arcSize=14;strokeWidth=2;fillColor=#ffffff;fontFamily=Arial;fontSize=11;verticalAlign=top;" vertex="1" parent="5Yxx8I05CL2mqf56QJ3Y-27">
          <mxGeometry x="40" y="432" width="110" height="52" as="geometry"/>
        </mxCell>
        <mxCell id="5Yxx8I05CL2mqf56QJ3Y-41" value="Extrato de débitos (GSAN)" style="strokeWidth=2;html=1;shape=mxgraph.flowchart.document2;whiteSpace=wrap;size=0.25;rounded=1;fillColor=#ffffff;fontFamily=Arial;fontSize=11;verticalAlign=top;" vertex="1" parent="5Yxx8I05CL2mqf56QJ3Y-27">
          <mxGeometry x="200" y="118" width="100" height="60" as="geometry"/>
        </mxCell>
        <mxCell id="5Yxx8I05CL2mqf56QJ3Y-42" value="" style="edgeStyle=orthogonalEdgeStyle;rounded=0;orthogonalLoop=1;jettySize=auto;html=1;fontFamily=Arial;fontSize=11;entryX=0;entryY=0.5;entryDx=0;entryDy=0;entryPerimeter=0;" edge="1" parent="5Yxx8I05CL2mqf56QJ3Y-27" source="5Yxx8I05CL2mqf56QJ3Y-30" target="5Yxx8I05CL2mqf56QJ3Y-41">
          <mxGeometry relative="1" as="geometry">
            <mxPoint x="205" y="148" as="targetPoint"/>
          </mxGeometry>
        </mxCell>
        <mxCell id="5Yxx8I05CL2mqf56QJ3Y-43" value="Certidão Negativa de Débitos" style="strokeWidth=2;html=1;shape=mxgraph.flowchart.document2;whiteSpace=wrap;size=0.25;rounded=1;fillColor=#ffffff;fontFamily=Arial;fontSize=11;verticalAlign=top;" vertex="1" parent="5Yxx8I05CL2mqf56QJ3Y-27">
          <mxGeometry x="210" y="428" width="100" height="60" as="geometry"/>
        </mxCell>
        <mxCell id="5Yxx8I05CL2mqf56QJ3Y-44" style="edgeStyle=orthogonalEdgeStyle;rounded=0;orthogonalLoop=1;jettySize=auto;html=1;entryX=0;entryY=0.5;entryDx=0;entryDy=0;entryPerimeter=0;fontFamily=Arial;fontSize=11;" edge="1" parent="5Yxx8I05CL2mqf56QJ3Y-27" source="5Yxx8I05CL2mqf56QJ3Y-46" target="5Yxx8I05CL2mqf56QJ3Y-48">
          <mxGeometry relative="1" as="geometry"/>
        </mxCell>
        <mxCell id="5Yxx8I05CL2mqf56QJ3Y-45" style="edgeStyle=orthogonalEdgeStyle;rounded=0;orthogonalLoop=1;jettySize=auto;html=1;fontFamily=Arial;fontSize=11;" edge="1" parent="5Yxx8I05CL2mqf56QJ3Y-27" source="5Yxx8I05CL2mqf56QJ3Y-46" target="5Yxx8I05CL2mqf56QJ3Y-49">
          <mxGeometry relative="1" as="geometry">
            <Array as="points">
              <mxPoint x="95" y="664"/>
            </Array>
          </mxGeometry>
        </mxCell>
        <mxCell id="5Yxx8I05CL2mqf56QJ3Y-46" value="3. Encaminhamento para Análise Técnica" style="rounded=1;whiteSpace=wrap;html=1;absoluteArcSize=1;arcSize=14;strokeWidth=2;fillColor=#ffffff;fontFamily=Arial;fontSize=11;" vertex="1" parent="5Yxx8I05CL2mqf56QJ3Y-27">
          <mxGeometry x="40" y="568" width="110" height="62" as="geometry"/>
        </mxCell>
        <mxCell id="5Yxx8I05CL2mqf56QJ3Y-47" style="edgeStyle=orthogonalEdgeStyle;rounded=0;orthogonalLoop=1;jettySize=auto;html=1;fontFamily=Arial;fontSize=11;" edge="1" parent="5Yxx8I05CL2mqf56QJ3Y-27" source="5Yxx8I05CL2mqf56QJ3Y-40" target="5Yxx8I05CL2mqf56QJ3Y-46">
          <mxGeometry relative="1" as="geometry">
            <mxPoint x="440" y="368" as="targetPoint"/>
            <Array as="points">
              <mxPoint x="95" y="538"/>
              <mxPoint x="95" y="538"/>
            </Array>
          </mxGeometry>
        </mxCell>
        <mxCell id="5Yxx8I05CL2mqf56QJ3Y-48" value="&lt;div&gt;Protocolo SPD Análise Técnica&lt;/div&gt;&lt;div&gt;(2° vinculado)&lt;br&gt;&lt;/div&gt;" style="strokeWidth=2;html=1;shape=mxgraph.flowchart.document2;whiteSpace=wrap;size=0.25;rounded=1;fillColor=#ffffff;fontFamily=Arial;fontSize=11;verticalAlign=top;" vertex="1" parent="5Yxx8I05CL2mqf56QJ3Y-27">
          <mxGeometry x="210" y="564" width="100" height="70" as="geometry"/>
        </mxCell>
        <mxCell id="5Yxx8I05CL2mqf56QJ3Y-49" value="&lt;div&gt;Encaminha para&lt;/div&gt;&lt;div&gt;4.0.00.00/DOM&lt;/div&gt;" style="text;html=1;resizable=0;autosize=1;align=center;verticalAlign=middle;points=[];fillColor=none;strokeColor=none;rounded=0;fontFamily=Arial;fontSize=11;fontStyle=2" vertex="1" parent="5Yxx8I05CL2mqf56QJ3Y-27">
          <mxGeometry x="180" y="644" width="90" height="30" as="geometry"/>
        </mxCell>
        <mxCell id="5Yxx8I05CL2mqf56QJ3Y-50" value="5.0.06.00/GCLE" style="text;html=1;resizable=0;autosize=1;align=center;verticalAlign=middle;points=[];fillColor=none;strokeColor=none;rounded=0;fontFamily=Arial;fontSize=22;fontColor=#336600;fontStyle=1" vertex="1" parent="5Yxx8I05CL2mqf56QJ3Y-27">
          <mxGeometry x="10" y="670" width="170" height="30" as="geometry"/>
        </mxCell>
        <mxCell id="5Yxx8I05CL2mqf56QJ3Y-51" value="C - ANÁLISE TÉCNICA" style="swimlane;html=1;startSize=20;fontFamily=Arial;" vertex="1" parent="5Yxx8I05CL2mqf56QJ3Y-3">
          <mxGeometry x="680" y="20" width="420" height="720" as="geometry"/>
        </mxCell>
        <mxCell id="5Yxx8I05CL2mqf56QJ3Y-52" value="" style="whiteSpace=wrap;html=1;fontFamily=Arial;fontSize=11;fillColor=#e1d5e7;strokeColor=#9673a6;dashed=1;strokeWidth=1;rounded=1;arcSize=3;" vertex="1" parent="5Yxx8I05CL2mqf56QJ3Y-51">
          <mxGeometry x="10" y="30" width="400" height="680" as="geometry"/>
        </mxCell>
        <mxCell id="5Yxx8I05CL2mqf56QJ3Y-53" style="edgeStyle=orthogonalEdgeStyle;rounded=0;orthogonalLoop=1;jettySize=auto;html=1;fontFamily=Arial;fontSize=11;" edge="1" parent="5Yxx8I05CL2mqf56QJ3Y-51" source="5Yxx8I05CL2mqf56QJ3Y-54" target="5Yxx8I05CL2mqf56QJ3Y-60">
          <mxGeometry relative="1" as="geometry">
            <Array as="points">
              <mxPoint x="155" y="150"/>
              <mxPoint x="155" y="150"/>
            </Array>
          </mxGeometry>
        </mxCell>
        <mxCell id="5Yxx8I05CL2mqf56QJ3Y-54" value="1. Triagem e Encaminhamento" style="rounded=1;whiteSpace=wrap;html=1;absoluteArcSize=1;arcSize=14;strokeWidth=2;fillColor=#ffffff;fontFamily=Arial;fontSize=11;" vertex="1" parent="5Yxx8I05CL2mqf56QJ3Y-51">
          <mxGeometry x="55" y="80" width="130" height="50" as="geometry"/>
        </mxCell>
        <mxCell id="5Yxx8I05CL2mqf56QJ3Y-55" style="edgeStyle=orthogonalEdgeStyle;rounded=0;orthogonalLoop=1;jettySize=auto;html=1;entryX=0.435;entryY=0.052;entryDx=0;entryDy=0;fontFamily=Arial;fontSize=22;fontColor=#660066;entryPerimeter=0;" edge="1" parent="5Yxx8I05CL2mqf56QJ3Y-51" source="5Yxx8I05CL2mqf56QJ3Y-56" target="5Yxx8I05CL2mqf56QJ3Y-62">
          <mxGeometry relative="1" as="geometry">
            <Array as="points">
              <mxPoint x="240" y="210"/>
              <mxPoint x="120" y="210"/>
            </Array>
          </mxGeometry>
        </mxCell>
        <mxCell id="5Yxx8I05CL2mqf56QJ3Y-56" value="1.1 ATOM" style="rounded=1;whiteSpace=wrap;html=1;absoluteArcSize=1;arcSize=14;strokeWidth=2;fillColor=#ffffff;fontFamily=Arial;fontSize=11;" vertex="1" parent="5Yxx8I05CL2mqf56QJ3Y-51">
          <mxGeometry x="219" y="149" width="81" height="50" as="geometry"/>
        </mxCell>
        <mxCell id="5Yxx8I05CL2mqf56QJ3Y-57" style="edgeStyle=orthogonalEdgeStyle;rounded=0;orthogonalLoop=1;jettySize=auto;html=1;entryX=0.5;entryY=0;entryDx=0;entryDy=0;entryPerimeter=0;fontFamily=Arial;fontSize=10;fontColor=#660066;" edge="1" parent="5Yxx8I05CL2mqf56QJ3Y-51" source="5Yxx8I05CL2mqf56QJ3Y-58" target="5Yxx8I05CL2mqf56QJ3Y-73">
          <mxGeometry relative="1" as="geometry"/>
        </mxCell>
        <mxCell id="5Yxx8I05CL2mqf56QJ3Y-58" value="2. Análise e Emissão virtual da AVT" style="rounded=1;whiteSpace=wrap;html=1;absoluteArcSize=1;arcSize=14;strokeWidth=2;fillColor=#ffffff;fontFamily=Arial;fontSize=11;" vertex="1" parent="5Yxx8I05CL2mqf56QJ3Y-51">
          <mxGeometry x="100" y="440" width="130" height="50" as="geometry"/>
        </mxCell>
        <mxCell id="5Yxx8I05CL2mqf56QJ3Y-59" style="edgeStyle=orthogonalEdgeStyle;rounded=0;orthogonalLoop=1;jettySize=auto;html=1;entryX=0;entryY=0.5;entryDx=0;entryDy=0;fontFamily=Arial;fontSize=22;fontColor=#660066;" edge="1" parent="5Yxx8I05CL2mqf56QJ3Y-51" source="5Yxx8I05CL2mqf56QJ3Y-60" target="5Yxx8I05CL2mqf56QJ3Y-56">
          <mxGeometry relative="1" as="geometry"/>
        </mxCell>
        <mxCell id="5Yxx8I05CL2mqf56QJ3Y-60" value="&lt;div&gt;Encaminha&lt;/div&gt;&lt;div&gt;para&lt;/div&gt;" style="text;html=1;resizable=0;autosize=1;align=center;verticalAlign=middle;points=[];fillColor=none;strokeColor=none;rounded=0;fontFamily=Arial;fontSize=11;fontStyle=2" vertex="1" parent="5Yxx8I05CL2mqf56QJ3Y-51">
          <mxGeometry x="95" y="165" width="70" height="30" as="geometry"/>
        </mxCell>
        <mxCell id="5Yxx8I05CL2mqf56QJ3Y-61" style="edgeStyle=orthogonalEdgeStyle;rounded=0;orthogonalLoop=1;jettySize=auto;html=1;entryX=0;entryY=0.5;entryDx=0;entryDy=0;fontFamily=Arial;fontSize=11;" edge="1" parent="5Yxx8I05CL2mqf56QJ3Y-51" source="5Yxx8I05CL2mqf56QJ3Y-62" target="5Yxx8I05CL2mqf56QJ3Y-65">
          <mxGeometry relative="1" as="geometry">
            <Array as="points">
              <mxPoint x="164" y="255"/>
              <mxPoint x="164" y="255"/>
            </Array>
          </mxGeometry>
        </mxCell>
        <mxCell id="5Yxx8I05CL2mqf56QJ3Y-62" value="&lt;div&gt;Encaminha&lt;/div&gt;&lt;div&gt;para:&lt;/div&gt;" style="text;html=1;resizable=0;points=[];autosize=1;align=center;verticalAlign=middle;spacingTop=-4;fontSize=11;fontFamily=Arial;" vertex="1" parent="5Yxx8I05CL2mqf56QJ3Y-51">
          <mxGeometry x="89" y="240" width="70" height="30" as="geometry"/>
        </mxCell>
        <mxCell id="5Yxx8I05CL2mqf56QJ3Y-63" style="edgeStyle=orthogonalEdgeStyle;rounded=0;orthogonalLoop=1;jettySize=auto;html=1;exitX=1;exitY=0.5;exitDx=0;exitDy=0;fontFamily=Arial;fontSize=11;fontColor=#000000;entryX=1;entryY=0.5;entryDx=0;entryDy=0;" edge="1" parent="5Yxx8I05CL2mqf56QJ3Y-51" source="5Yxx8I05CL2mqf56QJ3Y-65" target="5Yxx8I05CL2mqf56QJ3Y-56">
          <mxGeometry relative="1" as="geometry">
            <Array as="points">
              <mxPoint x="340" y="230"/>
              <mxPoint x="360" y="230"/>
              <mxPoint x="360" y="174"/>
            </Array>
          </mxGeometry>
        </mxCell>
        <mxCell id="5Yxx8I05CL2mqf56QJ3Y-64" style="edgeStyle=orthogonalEdgeStyle;rounded=0;orthogonalLoop=1;jettySize=auto;html=1;entryX=0.574;entryY=1.037;entryDx=0;entryDy=0;entryPerimeter=0;fontFamily=Arial;fontSize=11;fontColor=#000000;" edge="1" parent="5Yxx8I05CL2mqf56QJ3Y-51" source="5Yxx8I05CL2mqf56QJ3Y-65" target="5Yxx8I05CL2mqf56QJ3Y-88">
          <mxGeometry relative="1" as="geometry">
            <Array as="points">
              <mxPoint x="370" y="255"/>
              <mxPoint x="370" y="160"/>
              <mxPoint x="325" y="160"/>
            </Array>
          </mxGeometry>
        </mxCell>
        <mxCell id="5Yxx8I05CL2mqf56QJ3Y-65" value="&lt;div&gt;1.2 SUSR/SSRA (Água Regional)&lt;br&gt;&lt;/div&gt;&lt;div&gt;SUSM/SSMA (Água Metropolitana)&lt;br&gt;&lt;/div&gt;&lt;div&gt;SUES/SSES (Esgoto)&lt;br&gt;&lt;/div&gt;" style="rounded=1;whiteSpace=wrap;html=1;absoluteArcSize=1;arcSize=14;strokeWidth=1;fillColor=#ffffff;fontFamily=Arial;fontSize=11;align=center;fontStyle=3" vertex="1" parent="5Yxx8I05CL2mqf56QJ3Y-51">
          <mxGeometry x="198" y="220" width="142" height="70" as="geometry"/>
        </mxCell>
        <mxCell id="5Yxx8I05CL2mqf56QJ3Y-66" value="&lt;div&gt;Encaminha&lt;/div&gt;&lt;div&gt;para:&lt;/div&gt;" style="text;html=1;resizable=0;points=[];autosize=1;align=center;verticalAlign=middle;spacingTop=-4;fontSize=11;fontFamily=Arial;" vertex="1" parent="5Yxx8I05CL2mqf56QJ3Y-51">
          <mxGeometry x="250" y="310" width="70" height="30" as="geometry"/>
        </mxCell>
        <mxCell id="5Yxx8I05CL2mqf56QJ3Y-67" style="edgeStyle=orthogonalEdgeStyle;rounded=0;orthogonalLoop=1;jettySize=auto;html=1;fontFamily=Arial;fontSize=11;" edge="1" parent="5Yxx8I05CL2mqf56QJ3Y-51" source="5Yxx8I05CL2mqf56QJ3Y-65" target="5Yxx8I05CL2mqf56QJ3Y-66">
          <mxGeometry relative="1" as="geometry">
            <mxPoint x="285" y="414.0000000000001" as="targetPoint"/>
            <mxPoint x="285" y="344" as="sourcePoint"/>
            <Array as="points">
              <mxPoint x="285" y="310"/>
              <mxPoint x="285" y="310"/>
            </Array>
          </mxGeometry>
        </mxCell>
        <mxCell id="5Yxx8I05CL2mqf56QJ3Y-68" style="edgeStyle=orthogonalEdgeStyle;rounded=0;orthogonalLoop=1;jettySize=auto;html=1;fontFamily=Arial;fontSize=22;fontColor=#660066;exitX=0;exitY=0.5;exitDx=0;exitDy=0;" edge="1" parent="5Yxx8I05CL2mqf56QJ3Y-51" source="5Yxx8I05CL2mqf56QJ3Y-69" target="5Yxx8I05CL2mqf56QJ3Y-58">
          <mxGeometry relative="1" as="geometry"/>
        </mxCell>
        <mxCell id="5Yxx8I05CL2mqf56QJ3Y-69" value="1.3 Gerências Operacionais" style="rounded=1;whiteSpace=wrap;html=1;absoluteArcSize=1;arcSize=14;strokeWidth=1;fillColor=#ffffff;fontFamily=Arial;fontSize=11;align=center;fontStyle=3" vertex="1" parent="5Yxx8I05CL2mqf56QJ3Y-51">
          <mxGeometry x="224" y="372" width="120" height="46" as="geometry"/>
        </mxCell>
        <mxCell id="5Yxx8I05CL2mqf56QJ3Y-70" style="edgeStyle=orthogonalEdgeStyle;rounded=0;orthogonalLoop=1;jettySize=auto;html=1;fontFamily=Arial;fontSize=11;entryX=0.5;entryY=0;entryDx=0;entryDy=0;" edge="1" parent="5Yxx8I05CL2mqf56QJ3Y-51" source="5Yxx8I05CL2mqf56QJ3Y-66" target="5Yxx8I05CL2mqf56QJ3Y-69">
          <mxGeometry relative="1" as="geometry">
            <mxPoint x="285" y="380" as="targetPoint"/>
            <Array as="points">
              <mxPoint x="284" y="360"/>
              <mxPoint x="284" y="360"/>
            </Array>
          </mxGeometry>
        </mxCell>
        <mxCell id="5Yxx8I05CL2mqf56QJ3Y-71" value="4.0.00.00/DOM" style="text;html=1;resizable=0;autosize=1;align=center;verticalAlign=middle;points=[];fillColor=none;strokeColor=none;rounded=0;fontFamily=Arial;fontSize=22;fontColor=#660066;fontStyle=1;" vertex="1" parent="5Yxx8I05CL2mqf56QJ3Y-51">
          <mxGeometry x="240" y="670" width="160" height="30" as="geometry"/>
        </mxCell>
        <mxCell id="5Yxx8I05CL2mqf56QJ3Y-72" style="edgeStyle=orthogonalEdgeStyle;rounded=0;orthogonalLoop=1;jettySize=auto;html=1;entryX=0.512;entryY=1.159;entryDx=0;entryDy=0;entryPerimeter=0;fontFamily=Arial;fontSize=10;fontColor=#000000;" edge="1" parent="5Yxx8I05CL2mqf56QJ3Y-51" source="5Yxx8I05CL2mqf56QJ3Y-73" target="5Yxx8I05CL2mqf56QJ3Y-83">
          <mxGeometry relative="1" as="geometry">
            <Array as="points">
              <mxPoint x="390" y="531"/>
            </Array>
          </mxGeometry>
        </mxCell>
        <mxCell id="5Yxx8I05CL2mqf56QJ3Y-73" value="&lt;div&gt;2.1&lt;/div&gt;&lt;div&gt;Informações&lt;/div&gt;&lt;div&gt;são&lt;/div&gt;&lt;div&gt;suficientes?&lt;/div&gt;" style="strokeWidth=2;html=1;shape=mxgraph.flowchart.decision;whiteSpace=wrap;rounded=1;fillColor=#ffffff;fontFamily=Arial;fontSize=10;fontColor=#000000;align=center;verticalAlign=top;" vertex="1" parent="5Yxx8I05CL2mqf56QJ3Y-51">
          <mxGeometry x="264" y="490" width="94" height="82" as="geometry"/>
        </mxCell>
        <mxCell id="5Yxx8I05CL2mqf56QJ3Y-74" style="edgeStyle=orthogonalEdgeStyle;rounded=0;orthogonalLoop=1;jettySize=auto;html=1;entryX=0.5;entryY=0;entryDx=0;entryDy=0;entryPerimeter=0;fontFamily=Arial;fontSize=10;fontColor=#000000;" edge="1" parent="5Yxx8I05CL2mqf56QJ3Y-51" source="5Yxx8I05CL2mqf56QJ3Y-75" target="5Yxx8I05CL2mqf56QJ3Y-78">
          <mxGeometry relative="1" as="geometry"/>
        </mxCell>
        <mxCell id="5Yxx8I05CL2mqf56QJ3Y-75" value="2.2 Conclusão da análise e emissão da AVT no PUBLIX" style="rounded=1;whiteSpace=wrap;html=1;absoluteArcSize=1;arcSize=14;strokeWidth=2;fillColor=#ffffff;fontFamily=Arial;fontSize=10;fontColor=#000000;align=center;" vertex="1" parent="5Yxx8I05CL2mqf56QJ3Y-51">
          <mxGeometry x="85" y="504" width="100" height="54" as="geometry"/>
        </mxCell>
        <mxCell id="5Yxx8I05CL2mqf56QJ3Y-76" style="edgeStyle=orthogonalEdgeStyle;rounded=0;orthogonalLoop=1;jettySize=auto;html=1;fontFamily=Arial;fontSize=10;fontColor=#000000;" edge="1" parent="5Yxx8I05CL2mqf56QJ3Y-51" source="5Yxx8I05CL2mqf56QJ3Y-78" target="5Yxx8I05CL2mqf56QJ3Y-84">
          <mxGeometry relative="1" as="geometry">
            <Array as="points">
              <mxPoint x="165" y="650"/>
              <mxPoint x="165" y="650"/>
            </Array>
          </mxGeometry>
        </mxCell>
        <mxCell id="5Yxx8I05CL2mqf56QJ3Y-77" style="edgeStyle=orthogonalEdgeStyle;rounded=0;orthogonalLoop=1;jettySize=auto;html=1;fontFamily=Arial;fontSize=11;fontColor=#000000;" edge="1" parent="5Yxx8I05CL2mqf56QJ3Y-51" source="5Yxx8I05CL2mqf56QJ3Y-78" target="5Yxx8I05CL2mqf56QJ3Y-87">
          <mxGeometry relative="1" as="geometry">
            <Array as="points">
              <mxPoint x="60" y="612"/>
            </Array>
          </mxGeometry>
        </mxCell>
        <mxCell id="5Yxx8I05CL2mqf56QJ3Y-78" value="&lt;div&gt;&lt;br&gt;&lt;/div&gt;&lt;div&gt;2.3 AVT&lt;/div&gt;&lt;div&gt;SISTEMA PÚBLIX&lt;/div&gt;" style="strokeWidth=1;html=1;shape=mxgraph.flowchart.database;whiteSpace=wrap;rounded=1;fillColor=#ffffff;fontFamily=Arial;fontSize=10;fontColor=#000000;align=center;verticalAlign=middle;" vertex="1" parent="5Yxx8I05CL2mqf56QJ3Y-51">
          <mxGeometry x="82.5" y="581.5" width="105" height="60" as="geometry"/>
        </mxCell>
        <mxCell id="5Yxx8I05CL2mqf56QJ3Y-79" style="edgeStyle=orthogonalEdgeStyle;rounded=0;orthogonalLoop=1;jettySize=auto;html=1;entryX=1;entryY=0.5;entryDx=0;entryDy=0;fontFamily=Arial;fontSize=10;fontColor=#000000;" edge="1" parent="5Yxx8I05CL2mqf56QJ3Y-51" source="5Yxx8I05CL2mqf56QJ3Y-80" target="5Yxx8I05CL2mqf56QJ3Y-75">
          <mxGeometry relative="1" as="geometry"/>
        </mxCell>
        <mxCell id="5Yxx8I05CL2mqf56QJ3Y-80" value="Sim" style="text;html=1;resizable=0;points=[];autosize=1;align=center;verticalAlign=middle;spacingTop=-4;fontSize=11;fontFamily=Arial;fontStyle=2" vertex="1" parent="5Yxx8I05CL2mqf56QJ3Y-51">
          <mxGeometry x="215" y="526" width="20" height="10" as="geometry"/>
        </mxCell>
        <mxCell id="5Yxx8I05CL2mqf56QJ3Y-81" style="edgeStyle=orthogonalEdgeStyle;rounded=0;orthogonalLoop=1;jettySize=auto;html=1;fontFamily=Arial;fontSize=10;fontColor=#000000;" edge="1" parent="5Yxx8I05CL2mqf56QJ3Y-51" source="5Yxx8I05CL2mqf56QJ3Y-73" target="5Yxx8I05CL2mqf56QJ3Y-80">
          <mxGeometry relative="1" as="geometry">
            <mxPoint x="1002" y="611.0000000000001" as="sourcePoint"/>
            <mxPoint x="944.5" y="611.0000000000001" as="targetPoint"/>
            <Array as="points">
              <mxPoint x="229" y="531"/>
            </Array>
          </mxGeometry>
        </mxCell>
        <mxCell id="5Yxx8I05CL2mqf56QJ3Y-82" style="edgeStyle=orthogonalEdgeStyle;rounded=0;orthogonalLoop=1;jettySize=auto;html=1;entryX=1;entryY=0.5;entryDx=0;entryDy=0;entryPerimeter=0;fontFamily=Arial;fontSize=10;fontColor=#000000;" edge="1" parent="5Yxx8I05CL2mqf56QJ3Y-51" source="5Yxx8I05CL2mqf56QJ3Y-83" target="5Yxx8I05CL2mqf56QJ3Y-85">
          <mxGeometry relative="1" as="geometry">
            <mxPoint x="343.42857142857133" y="55.095238095238074" as="targetPoint"/>
            <Array as="points">
              <mxPoint x="390" y="55"/>
            </Array>
          </mxGeometry>
        </mxCell>
        <mxCell id="5Yxx8I05CL2mqf56QJ3Y-83" value="Não" style="text;html=1;resizable=0;points=[];autosize=1;align=center;verticalAlign=middle;spacingTop=-4;fontSize=11;fontFamily=Arial;fontStyle=2" vertex="1" parent="5Yxx8I05CL2mqf56QJ3Y-51">
          <mxGeometry x="370" y="362" width="40" height="10" as="geometry"/>
        </mxCell>
        <mxCell id="5Yxx8I05CL2mqf56QJ3Y-84" value="&lt;div&gt;2.5 Informe sobre a conclusão da&lt;/div&gt;&lt;div&gt;AVT e orienta procurar a GCLE&lt;/div&gt;" style="text;html=1;resizable=0;autosize=1;align=center;verticalAlign=middle;points=[];fillColor=none;strokeColor=none;rounded=0;fontFamily=Arial;fontSize=10;fontColor=#000000;fontStyle=2" vertex="1" parent="5Yxx8I05CL2mqf56QJ3Y-51">
          <mxGeometry x="65" y="670" width="170" height="30" as="geometry"/>
        </mxCell>
        <mxCell id="5Yxx8I05CL2mqf56QJ3Y-85" value="Contacta cliente e solicita complementos" style="strokeWidth=1;html=1;shape=mxgraph.flowchart.loop_limit;whiteSpace=wrap;rounded=1;labelBackgroundColor=none;fillColor=#FFFFFF;fontFamily=Arial;fontSize=9;fontColor=#000000;align=center;" vertex="1" parent="5Yxx8I05CL2mqf56QJ3Y-51">
          <mxGeometry x="230" y="40" width="104" height="30" as="geometry"/>
        </mxCell>
        <mxCell id="5Yxx8I05CL2mqf56QJ3Y-86" style="edgeStyle=orthogonalEdgeStyle;rounded=0;orthogonalLoop=1;jettySize=auto;html=1;entryX=0;entryY=0.75;entryDx=0;entryDy=0;fontFamily=Arial;fontSize=11;fontColor=#000000;" edge="1" parent="5Yxx8I05CL2mqf56QJ3Y-51" source="5Yxx8I05CL2mqf56QJ3Y-87" target="5Yxx8I05CL2mqf56QJ3Y-65">
          <mxGeometry relative="1" as="geometry">
            <Array as="points">
              <mxPoint x="60" y="273"/>
            </Array>
          </mxGeometry>
        </mxCell>
        <mxCell id="5Yxx8I05CL2mqf56QJ3Y-87" value="&lt;div&gt;2.4 Retorna&lt;/div&gt;&lt;div&gt;para&lt;/div&gt;" style="text;html=1;resizable=0;points=[];autosize=1;align=center;verticalAlign=middle;spacingTop=-4;fontSize=11;fontFamily=Arial;" vertex="1" parent="5Yxx8I05CL2mqf56QJ3Y-51">
          <mxGeometry x="25" y="380" width="70" height="30" as="geometry"/>
        </mxCell>
        <mxCell id="5Yxx8I05CL2mqf56QJ3Y-88" value="&lt;div&gt;3. Materialização da AVT&lt;/div&gt;&lt;div&gt;(Assinada)&lt;br&gt;&lt;/div&gt;" style="rounded=1;whiteSpace=wrap;html=1;absoluteArcSize=1;arcSize=14;strokeWidth=2;fillColor=#ffffff;fontFamily=Arial;fontSize=11;" vertex="1" parent="5Yxx8I05CL2mqf56QJ3Y-51">
          <mxGeometry x="250" y="80" width="130" height="50" as="geometry"/>
        </mxCell>
        <mxCell id="5Yxx8I05CL2mqf56QJ3Y-89" value="" style="edgeStyle=orthogonalEdgeStyle;rounded=0;orthogonalLoop=1;jettySize=auto;html=1;fontFamily=Arial;entryX=0;entryY=0.5;entryDx=0;entryDy=0;entryPerimeter=0;" edge="1" parent="5Yxx8I05CL2mqf56QJ3Y-3" source="5Yxx8I05CL2mqf56QJ3Y-10" target="5Yxx8I05CL2mqf56QJ3Y-33">
          <mxGeometry relative="1" as="geometry">
            <mxPoint x="385" y="456" as="targetPoint"/>
            <Array as="points">
              <mxPoint x="90" y="680"/>
              <mxPoint x="360" y="680"/>
              <mxPoint x="360" y="299"/>
            </Array>
          </mxGeometry>
        </mxCell>
        <mxCell id="5Yxx8I05CL2mqf56QJ3Y-90" style="edgeStyle=orthogonalEdgeStyle;rounded=0;orthogonalLoop=1;jettySize=auto;html=1;entryX=0.976;entryY=0.587;entryDx=0;entryDy=0;fontFamily=Arial;fontSize=11;entryPerimeter=0;exitX=0;exitY=0.5;exitDx=0;exitDy=0;" edge="1" parent="5Yxx8I05CL2mqf56QJ3Y-3" source="5Yxx8I05CL2mqf56QJ3Y-38" target="5Yxx8I05CL2mqf56QJ3Y-23">
          <mxGeometry relative="1" as="geometry">
            <mxPoint x="360" y="98" as="sourcePoint"/>
            <Array as="points">
              <mxPoint x="231" y="101"/>
              <mxPoint x="231" y="88"/>
            </Array>
          </mxGeometry>
        </mxCell>
        <mxCell id="5Yxx8I05CL2mqf56QJ3Y-91" value="D - ENCERRAMENTO" style="swimlane;html=1;startSize=20;fontFamily=Arial;" vertex="1" parent="5Yxx8I05CL2mqf56QJ3Y-3">
          <mxGeometry x="1100" y="20" width="350" height="720" as="geometry"/>
        </mxCell>
        <mxCell id="5Yxx8I05CL2mqf56QJ3Y-92" value="" style="whiteSpace=wrap;html=1;fontFamily=Arial;fontSize=11;fillColor=#fff2cc;strokeColor=#d6b656;dashed=1;strokeWidth=1;rounded=1;arcSize=3;" vertex="1" parent="5Yxx8I05CL2mqf56QJ3Y-91">
          <mxGeometry x="11" y="30" width="329" height="680" as="geometry"/>
        </mxCell>
        <mxCell id="5Yxx8I05CL2mqf56QJ3Y-93" value="5.0.06.00/GCLE" style="text;html=1;resizable=0;autosize=1;align=center;verticalAlign=middle;points=[];fillColor=none;strokeColor=none;rounded=0;fontFamily=Arial;fontSize=22;fontColor=#994C00;fontStyle=1" vertex="1" parent="5Yxx8I05CL2mqf56QJ3Y-91">
          <mxGeometry x="101.5" y="670" width="170" height="30" as="geometry"/>
        </mxCell>
        <mxCell id="5Yxx8I05CL2mqf56QJ3Y-94" style="edgeStyle=orthogonalEdgeStyle;rounded=0;orthogonalLoop=1;jettySize=auto;html=1;entryX=1;entryY=0.5;entryDx=0;entryDy=0;entryPerimeter=0;fontFamily=Arial;fontSize=11;fontColor=#000000;" edge="1" parent="5Yxx8I05CL2mqf56QJ3Y-91" source="5Yxx8I05CL2mqf56QJ3Y-95" target="5Yxx8I05CL2mqf56QJ3Y-98">
          <mxGeometry relative="1" as="geometry">
            <Array as="points">
              <mxPoint x="320" y="85"/>
              <mxPoint x="320" y="221"/>
            </Array>
          </mxGeometry>
        </mxCell>
        <mxCell id="5Yxx8I05CL2mqf56QJ3Y-95" value="1. Emissão da Guida de Pagamento" style="rounded=1;whiteSpace=wrap;html=1;absoluteArcSize=1;arcSize=14;strokeWidth=2;fillColor=#ffffff;fontFamily=Arial;fontSize=11;" vertex="1" parent="5Yxx8I05CL2mqf56QJ3Y-91">
          <mxGeometry x="175" y="60" width="127" height="50" as="geometry"/>
        </mxCell>
        <mxCell id="5Yxx8I05CL2mqf56QJ3Y-96" style="edgeStyle=orthogonalEdgeStyle;rounded=0;orthogonalLoop=1;jettySize=auto;html=1;fontFamily=Arial;fontSize=10;fontColor=#000000;" edge="1" parent="5Yxx8I05CL2mqf56QJ3Y-91" source="5Yxx8I05CL2mqf56QJ3Y-98" target="5Yxx8I05CL2mqf56QJ3Y-103">
          <mxGeometry relative="1" as="geometry"/>
        </mxCell>
        <mxCell id="5Yxx8I05CL2mqf56QJ3Y-97" style="edgeStyle=orthogonalEdgeStyle;rounded=0;orthogonalLoop=1;jettySize=auto;html=1;fontFamily=Arial;fontSize=10;fontColor=#000000;" edge="1" parent="5Yxx8I05CL2mqf56QJ3Y-91" source="5Yxx8I05CL2mqf56QJ3Y-98" target="5Yxx8I05CL2mqf56QJ3Y-105">
          <mxGeometry relative="1" as="geometry"/>
        </mxCell>
        <mxCell id="5Yxx8I05CL2mqf56QJ3Y-98" value="Pagamento efetuado?" style="strokeWidth=2;html=1;shape=mxgraph.flowchart.decision;whiteSpace=wrap;rounded=1;fillColor=#ffffff;fontFamily=Arial;fontSize=10;fontColor=#000000;align=center;" vertex="1" parent="5Yxx8I05CL2mqf56QJ3Y-91">
          <mxGeometry x="189.5" y="180" width="94" height="82" as="geometry"/>
        </mxCell>
        <mxCell id="5Yxx8I05CL2mqf56QJ3Y-99" style="edgeStyle=orthogonalEdgeStyle;rounded=0;orthogonalLoop=1;jettySize=auto;html=1;fontFamily=Arial;fontSize=11;fontColor=#000000;" edge="1" parent="5Yxx8I05CL2mqf56QJ3Y-91" source="5Yxx8I05CL2mqf56QJ3Y-100" target="5Yxx8I05CL2mqf56QJ3Y-101">
          <mxGeometry relative="1" as="geometry"/>
        </mxCell>
        <mxCell id="5Yxx8I05CL2mqf56QJ3Y-100" value="Retirada da AVT" style="rounded=1;whiteSpace=wrap;html=1;absoluteArcSize=1;arcSize=14;strokeWidth=2;fillColor=#ffffff;fontFamily=Arial;fontSize=11;" vertex="1" parent="5Yxx8I05CL2mqf56QJ3Y-91">
          <mxGeometry x="173" y="340" width="127" height="50" as="geometry"/>
        </mxCell>
        <mxCell id="5Yxx8I05CL2mqf56QJ3Y-101" value="Encerramento" style="strokeWidth=2;html=1;shape=mxgraph.flowchart.terminator;whiteSpace=wrap;rounded=1;labelBackgroundColor=none;fontFamily=Arial;fontSize=10;align=center;" vertex="1" parent="5Yxx8I05CL2mqf56QJ3Y-91">
          <mxGeometry x="186.5" y="440" width="100" height="60" as="geometry"/>
        </mxCell>
        <mxCell id="5Yxx8I05CL2mqf56QJ3Y-102" style="edgeStyle=orthogonalEdgeStyle;rounded=0;orthogonalLoop=1;jettySize=auto;html=1;fontFamily=Arial;fontSize=10;fontColor=#000000;" edge="1" parent="5Yxx8I05CL2mqf56QJ3Y-91" source="5Yxx8I05CL2mqf56QJ3Y-103" target="5Yxx8I05CL2mqf56QJ3Y-100">
          <mxGeometry relative="1" as="geometry"/>
        </mxCell>
        <mxCell id="5Yxx8I05CL2mqf56QJ3Y-103" value="Sim" style="text;html=1;resizable=0;autosize=1;align=center;verticalAlign=middle;points=[];fillColor=none;strokeColor=none;rounded=0;labelBackgroundColor=none;fontFamily=Arial;fontSize=10;fontColor=#000000;" vertex="1" parent="5Yxx8I05CL2mqf56QJ3Y-91">
          <mxGeometry x="221.5" y="290" width="30" height="20" as="geometry"/>
        </mxCell>
        <mxCell id="5Yxx8I05CL2mqf56QJ3Y-104" style="edgeStyle=orthogonalEdgeStyle;rounded=0;orthogonalLoop=1;jettySize=auto;html=1;fontFamily=Arial;fontSize=10;fontColor=#000000;entryX=0.5;entryY=0;entryDx=0;entryDy=0;entryPerimeter=0;" edge="1" parent="5Yxx8I05CL2mqf56QJ3Y-91" source="5Yxx8I05CL2mqf56QJ3Y-105" target="5Yxx8I05CL2mqf56QJ3Y-107">
          <mxGeometry relative="1" as="geometry">
            <mxPoint x="87" y="260" as="targetPoint"/>
            <Array as="points">
              <mxPoint x="100" y="221"/>
            </Array>
          </mxGeometry>
        </mxCell>
        <mxCell id="5Yxx8I05CL2mqf56QJ3Y-105" value="Não" style="text;html=1;resizable=0;autosize=1;align=center;verticalAlign=middle;points=[];fillColor=none;strokeColor=none;rounded=0;labelBackgroundColor=none;fontFamily=Arial;fontSize=10;fontColor=#000000;" vertex="1" parent="5Yxx8I05CL2mqf56QJ3Y-91">
          <mxGeometry x="120" y="211" width="30" height="20" as="geometry"/>
        </mxCell>
        <mxCell id="5Yxx8I05CL2mqf56QJ3Y-106" style="edgeStyle=orthogonalEdgeStyle;rounded=0;orthogonalLoop=1;jettySize=auto;html=1;entryX=0.5;entryY=0;entryDx=0;entryDy=0;entryPerimeter=0;fontFamily=Arial;fontSize=10;fontColor=#000000;exitX=0;exitY=0.682;exitDx=0;exitDy=0;exitPerimeter=0;" edge="1" parent="5Yxx8I05CL2mqf56QJ3Y-91" source="5Yxx8I05CL2mqf56QJ3Y-107" target="5Yxx8I05CL2mqf56QJ3Y-98">
          <mxGeometry relative="1" as="geometry">
            <mxPoint x="50.333333333333485" y="260" as="sourcePoint"/>
            <Array as="points">
              <mxPoint x="20" y="300"/>
              <mxPoint x="20" y="160"/>
              <mxPoint x="236" y="160"/>
            </Array>
          </mxGeometry>
        </mxCell>
        <mxCell id="5Yxx8I05CL2mqf56QJ3Y-107" value="Aguarda compensação e/ou comprovação presencial" style="strokeWidth=1;html=1;shape=mxgraph.flowchart.loop_limit;whiteSpace=wrap;rounded=1;labelBackgroundColor=none;fillColor=#FFFFFF;fontFamily=Arial;fontSize=11;fontColor=#000000;align=center;" vertex="1" parent="5Yxx8I05CL2mqf56QJ3Y-91">
          <mxGeometry x="30" y="263" width="140" height="55" as="geometry"/>
        </mxCell>
        <mxCell id="5Yxx8I05CL2mqf56QJ3Y-108" style="edgeStyle=orthogonalEdgeStyle;rounded=0;orthogonalLoop=1;jettySize=auto;html=1;entryX=0;entryY=0.5;entryDx=0;entryDy=0;fontFamily=Arial;fontSize=11;fontColor=#000000;" edge="1" parent="5Yxx8I05CL2mqf56QJ3Y-91" source="5Yxx8I05CL2mqf56QJ3Y-109" target="5Yxx8I05CL2mqf56QJ3Y-95">
          <mxGeometry relative="1" as="geometry"/>
        </mxCell>
        <mxCell id="5Yxx8I05CL2mqf56QJ3Y-109" value="&lt;div&gt;C-3.1&lt;/div&gt;&lt;div&gt;Encaminha&lt;/div&gt;&lt;div&gt;para GCLE&lt;br&gt;&lt;/div&gt;" style="text;html=1;resizable=0;autosize=1;align=center;verticalAlign=middle;points=[];fillColor=none;strokeColor=none;rounded=0;fontFamily=Arial;fontSize=11;fontStyle=2" vertex="1" parent="5Yxx8I05CL2mqf56QJ3Y-91">
          <mxGeometry x="60" y="65" width="70" height="40" as="geometry"/>
        </mxCell>
        <mxCell id="5Yxx8I05CL2mqf56QJ3Y-110" style="edgeStyle=orthogonalEdgeStyle;rounded=0;orthogonalLoop=1;jettySize=auto;html=1;entryX=0;entryY=0.5;entryDx=0;entryDy=0;fontFamily=Arial;fontSize=11;" edge="1" parent="5Yxx8I05CL2mqf56QJ3Y-3" source="5Yxx8I05CL2mqf56QJ3Y-49" target="5Yxx8I05CL2mqf56QJ3Y-54">
          <mxGeometry relative="1" as="geometry">
            <Array as="points">
              <mxPoint x="700" y="680"/>
              <mxPoint x="700" y="125"/>
            </Array>
          </mxGeometry>
        </mxCell>
        <mxCell id="5Yxx8I05CL2mqf56QJ3Y-111" style="edgeStyle=orthogonalEdgeStyle;rounded=0;orthogonalLoop=1;jettySize=auto;html=1;entryX=0.75;entryY=0.25;entryDx=0;entryDy=0;entryPerimeter=0;fontFamily=Arial;fontSize=10;fontColor=#000000;exitX=0.015;exitY=0.63;exitDx=0;exitDy=0;exitPerimeter=0;" edge="1" parent="5Yxx8I05CL2mqf56QJ3Y-3" source="5Yxx8I05CL2mqf56QJ3Y-85" target="5Yxx8I05CL2mqf56QJ3Y-23">
          <mxGeometry relative="1" as="geometry">
            <mxPoint x="780" y="67.95238095238096" as="sourcePoint"/>
            <Array as="points">
              <mxPoint x="868" y="68"/>
            </Array>
          </mxGeometry>
        </mxCell>
        <mxCell id="5Yxx8I05CL2mqf56QJ3Y-112" style="edgeStyle=orthogonalEdgeStyle;rounded=0;orthogonalLoop=1;jettySize=auto;html=1;entryX=0.1;entryY=0.5;entryDx=0;entryDy=0;entryPerimeter=0;fontFamily=Arial;fontSize=10;fontColor=#000000;" edge="1" parent="5Yxx8I05CL2mqf56QJ3Y-3" source="5Yxx8I05CL2mqf56QJ3Y-84" target="5Yxx8I05CL2mqf56QJ3Y-23">
          <mxGeometry relative="1" as="geometry">
            <Array as="points">
              <mxPoint x="20" y="720"/>
              <mxPoint x="20" y="83"/>
            </Array>
          </mxGeometry>
        </mxCell>
        <mxCell id="5Yxx8I05CL2mqf56QJ3Y-113" style="edgeStyle=orthogonalEdgeStyle;rounded=0;orthogonalLoop=1;jettySize=auto;html=1;fontFamily=Arial;fontSize=11;fontColor=#000000;" edge="1" parent="5Yxx8I05CL2mqf56QJ3Y-3" source="5Yxx8I05CL2mqf56QJ3Y-88" target="5Yxx8I05CL2mqf56QJ3Y-109">
          <mxGeometry relative="1" as="geometry">
            <Array as="points">
              <mxPoint x="1130" y="125"/>
              <mxPoint x="1130" y="105"/>
            </Array>
          </mxGeometry>
        </mxCell>
      </root>
    </mxGraphModel>
  </diagram>
</mxfile>
